<svg xmlns="http://www.w3.org/2000/svg" xmlns:xlink="http://www.w3.org/1999/xlink" xmlns:lucid="lucid" width="1342" height="987.95"><g transform="translate(281 -522.234834360192)" lucid:page-tab-id="0_0"><path d="M-120 523.24c22.1 0 40 17.9 40 40s-17.9 40-40 40h-80c-22.1 0-40-17.9-40-40s17.9-40 40-40z" stroke="#000" stroke-width="2" fill-opacity="0"/><use xlink:href="#a" transform="matrix(1,0,0,1,-235,528.234834360192) translate(31.4453125 41.25)"/><use xlink:href="#b" transform="matrix(1,0,0,1,-235,528.234834360192) translate(72.59765625 41.25)"/><path d="M60 529.24a6 6 0 0 1 6-6h228a6 6 0 0 1 6 6v70.6a6 6 0 0 1-6 6H66a6 6 0 0 1-6-6z" stroke="#000" stroke-width="2" fill-opacity="0"/><use xlink:href="#c" transform="matrix(1,0,0,1,65,528.234834360192) translate(3.18359375 21.65625)"/><use xlink:href="#d" transform="matrix(1,0,0,1,65,528.234834360192) translate(55.78125 21.65625)"/><use xlink:href="#e" transform="matrix(1,0,0,1,65,528.234834360192) translate(102.48046875 21.65625)"/><use xlink:href="#f" transform="matrix(1,0,0,1,65,528.234834360192) translate(185.21484375 21.65625)"/><use xlink:href="#g" transform="matrix(1,0,0,1,65,528.234834360192) translate(5.1416015625 45.85546875)"/><use xlink:href="#h" transform="matrix(1,0,0,1,65,528.234834360192) translate(88.2373046875 45.85546875)"/><use xlink:href="#i" transform="matrix(1,0,0,1,65,528.234834360192) translate(129.1552734375 45.85546875)"/><use xlink:href="#j" transform="matrix(1,0,0,1,65,528.234834360192) translate(75.0732421875 70.0546875)"/><use xlink:href="#k" transform="matrix(1,0,0,1,65,528.234834360192) translate(97.3583984375 70.0546875)"/><path d="M-165.38 683.35a12.14 12.14 0 0 1 10.76 0l109.24 54a2.96 2.96 0 0 1 0 5.3l-109.24 54a12.14 12.14 0 0 1-10.76 0l-109.24-54a2.96 2.96 0 0 1 0-5.3z" stroke="#000" stroke-width="2" fill-opacity="0"/><use xlink:href="#l" transform="matrix(1,0,0,1,-275,685.6882642485463) translate(43.06164062500001 60.25)"/><use xlink:href="#m" transform="matrix(1,0,0,1,-275,685.6882642485463) translate(132.01671875 60.25)"/><use xlink:href="#n" transform="matrix(1,0,0,1,-275,685.6882642485463) translate(164.1065625 60.25)"/><path d="M-159.03 937.26h-1.94v-68.44h1.94zm0-89.95h-1.94v-47.4h1.94z" stroke="#000" stroke-width=".05"/><path d="M-160 798.9l.97-.03v1.07h-1.94v-1.07z"/><path stroke="#000" stroke-width=".05"/><path d="M-160 952.53l-4.63-14.27h9.26z"/><path d="M-160 955.68l-5.98-18.4h11.96zm-3.3-16.44l3.3 10.13 3.3-10.13z" stroke="#000" stroke-width=".05"/><use xlink:href="#o" transform="matrix(1,0,0,1,-175.79861111111111,847.3101945052854) translate(0 17.22222222222222)"/><path d="M400 529.24a6 6 0 0 1 6-6h228a6 6 0 0 1 6 6v70.6a6 6 0 0 1-6 6H406a6 6 0 0 1-6-6z" stroke="#000" stroke-width="2" fill-opacity="0"/><use xlink:href="#c" transform="matrix(1,0,0,1,405,528.234834360192) translate(27.6708984375 30.78125)"/><use xlink:href="#p" transform="matrix(1,0,0,1,405,528.234834360192) translate(80.2685546875 30.78125)"/><use xlink:href="#q" transform="matrix(1,0,0,1,405,528.234834360192) translate(167.0361328125 30.78125)"/><use xlink:href="#r" transform="matrix(1,0,0,1,405,528.234834360192) translate(15.7763671875 54.98046875)"/><use xlink:href="#s" transform="matrix(1,0,0,1,405,528.234834360192) translate(84.6533203125 54.98046875)"/><use xlink:href="#t" transform="matrix(1,0,0,1,405,528.234834360192) translate(134.3896484375 54.98046875)"/><use xlink:href="#u" transform="matrix(1,0,0,1,405,528.234834360192) translate(171.1279296875 54.98046875)"/><path d="M-280 962.76a6 6 0 0 1 6-6h228a6 6 0 0 1 6 6v28a6 6 0 0 1-6 6h-228a6 6 0 0 1-6-6z" stroke="#000" stroke-width="2" fill-opacity="0"/><use xlink:href="#v" transform="matrix(1,0,0,1,-275,961.7651656398081) translate(53.046875 23.125)"/><use xlink:href="#w" transform="matrix(1,0,0,1,-275,961.7651656398081) translate(139.1796875 23.125)"/><path d="M174.62 683.35a12.14 12.14 0 0 1 10.76 0l109.24 54a2.96 2.96 0 0 1 0 5.3l-109.24 54a12.14 12.14 0 0 1-10.76 0l-109.24-54a2.96 2.96 0 0 1 0-5.3z" stroke="#000" stroke-width="2" fill-opacity="0"/><use xlink:href="#x" transform="matrix(1,0,0,1,65,685.6882642485463) translate(52.00695312500001 60.25)"/><use xlink:href="#m" transform="matrix(1,0,0,1,65,685.6882642485463) translate(123.07140625000001 60.25)"/><use xlink:href="#n" transform="matrix(1,0,0,1,65,685.6882642485463) translate(155.16125 60.25)"/><path d="M180.97 830.5h-1.94v-1.94h1.94zm0-23.45h-1.94v-7.14h1.94z" stroke="#000" stroke-width=".05"/><path d="M180 798.9l.97-.03v1.07h-1.94v-1.07z"/><path stroke="#000" stroke-width=".05"/><path d="M180 845.76l-4.63-14.26h9.26z"/><path d="M180 848.92l-5.98-18.4h11.96zm-3.3-16.45l3.3 10.14 3.3-10.13z" stroke="#000" stroke-width=".05"/><use xlink:href="#o" transform="matrix(1,0,0,1,164.20138888888889,807.0458365201532) translate(0 17.22222222222222)"/><path d="M-2.23 740.98h-39.5V739h39.5zm46.45 0h-22V739h22z" stroke="#000" stroke-width=".05"/><path d="M-41.7 740.98h-1.15l.13-.98-.1-.88 1.12-.1z"/><path stroke="#000" stroke-width=".05"/><path d="M59.48 740l-14.26 4.63v-9.26z"/><path d="M62.64 740l-18.4 5.98v-11.96zm-16.45 3.3l10.13-3.3-10.14-3.3z" stroke="#000" stroke-width=".05"/><use xlink:href="#y" transform="matrix(1,0,0,1,-2.2265624627825176,729.2447916666666) translate(0 17.22222222222222)"/><path d="M60 856a6 6 0 0 1 6-6h228a6 6 0 0 1 6 6v48a6 6 0 0 1-6 6H66a6 6 0 0 1-6-6z" stroke="#000" stroke-width="2" fill-opacity="0"/><use xlink:href="#z" transform="matrix(1,0,0,1,65,855) translate(38.7109375 22.5)"/><use xlink:href="#A" transform="matrix(1,0,0,1,65,855) translate(124.853515625 22.5)"/><use xlink:href="#B" transform="matrix(1,0,0,1,65,855) translate(143.7109375 22.5)"/><use xlink:href="#C" transform="matrix(1,0,0,1,65,855) translate(28.427734375 46.69921875)"/><use xlink:href="#A" transform="matrix(1,0,0,1,65,855) translate(135.13671875 46.69921875)"/><use xlink:href="#D" transform="matrix(1,0,0,1,65,855) translate(153.994140625 46.69921875)"/><path d="M180 912v25.26" stroke="#000" stroke-width="2" fill="none"/><path d="M180.97 912.03h-1.94V911h1.94z" stroke="#000" stroke-width=".05"/><path d="M180 952.53l-4.63-14.27h9.26z" stroke="#000" stroke-width="2"/><path d="M60 962.76a6 6 0 0 1 6-6h228a6 6 0 0 1 6 6v28a6 6 0 0 1-6 6H66a6 6 0 0 1-6-6z" stroke="#000" stroke-width="2" fill-opacity="0"/><use xlink:href="#v" transform="matrix(1,0,0,1,65,961.7651656398081) translate(53.046875 23.125)"/><use xlink:href="#w" transform="matrix(1,0,0,1,65,961.7651656398081) translate(139.1796875 23.125)"/><path d="M514.5 683.1a13.65 13.65 0 0 1 11 0l123.9 54.5a2.64 2.64 0 0 1 0 4.8l-123.9 54.5a13.65 13.65 0 0 1-11 0l-123.9-54.5a2.64 2.64 0 0 1 0-4.8z" stroke="#000" stroke-width="2" fill-opacity="0"/><use xlink:href="#x" transform="matrix(1,0,0,1,390.1062629658064,685.6882642485463) translate(31.650507812500006 60.25)"/><use xlink:href="#m" transform="matrix(1,0,0,1,390.1062629658064,685.6882642485463) translate(102.71496093750001 60.25)"/><use xlink:href="#E" transform="matrix(1,0,0,1,390.1062629658064,685.6882642485463) translate(134.8048046875 60.25)"/><path d="M520.98 830.5H519v-1.86H521zm0-23.37H519v-7.08H521z" stroke="#000" stroke-width=".05"/><path d="M520 799.05l.98-.04v1.08H519V799z"/><path stroke="#000" stroke-width=".05"/><path d="M520 845.76l-4.63-14.26h9.26z"/><path d="M520 848.92l-5.98-18.4h11.96zm-3.3-16.45l3.3 10.14 3.3-10.13z" stroke="#000" stroke-width=".05"/><use xlink:href="#o" transform="matrix(1,0,0,1,504.2013888888889,807.1335535079355) translate(0 17.22222222222222)"/><path d="M316.62 740.98h-18.34V739h18.34zm52.9 0h-28.45V739h28.44z" stroke="#000" stroke-width=".05"/><path d="M298.3 740.98h-1.15l.13-.98-.1-.88 1.12-.1z"/><path stroke="#000" stroke-width=".05"/><path d="M384.78 740l-14.27 4.63v-9.26z"/><path d="M387.94 740l-18.4 5.98v-11.96zm-16.45 3.3l10.13-3.3-10.14-3.3z" stroke="#000" stroke-width=".05"/><use xlink:href="#y" transform="matrix(1,0,0,1,316.6204907638748,729.2447916666666) translate(0 17.22222222222222)"/><path d="M400 856a6 6 0 0 1 6-6h228a6 6 0 0 1 6 6v48a6 6 0 0 1-6 6H406a6 6 0 0 1-6-6z" stroke="#000" stroke-width="2" fill-opacity="0"/><use xlink:href="#z" transform="matrix(1,0,0,1,405,855) translate(40.3564453125 22.5)"/><use xlink:href="#A" transform="matrix(1,0,0,1,405,855) translate(126.4990234375 22.5)"/><use xlink:href="#F" transform="matrix(1,0,0,1,405,855) translate(145.3564453125 22.5)"/><use xlink:href="#C" transform="matrix(1,0,0,1,405,855) translate(27.83203125 46.69921875)"/><use xlink:href="#A" transform="matrix(1,0,0,1,405,855) translate(134.541015625 46.69921875)"/><use xlink:href="#G" transform="matrix(1,0,0,1,405,855) translate(153.3984375 46.69921875)"/><path d="M520 912v25.26" stroke="#000" stroke-width="2" fill="none"/><path d="M520.98 912.03H519V911H521z" stroke="#000" stroke-width=".05"/><path d="M520 952.53l-4.63-14.27h9.26z" stroke="#000" stroke-width="2"/><path d="M400 962.76a6 6 0 0 1 6-6h228a6 6 0 0 1 6 6v28a6 6 0 0 1-6 6H406a6 6 0 0 1-6-6z" stroke="#000" stroke-width="2" fill-opacity="0"/><use xlink:href="#v" transform="matrix(1,0,0,1,405,961.7651656398081) translate(53.046875 23.125)"/><use xlink:href="#w" transform="matrix(1,0,0,1,405,961.7651656398081) translate(139.1796875 23.125)"/><path d="M854.5 683.1a13.65 13.65 0 0 1 11 0l123.9 54.5a2.64 2.64 0 0 1 0 4.8l-123.9 54.5a13.65 13.65 0 0 1-11 0l-123.9-54.5a2.64 2.64 0 0 1 0-4.8z" stroke="#000" stroke-width="2" fill-opacity="0"/><use xlink:href="#x" transform="matrix(1,0,0,1,730.1062629658064,685.6882642485463) translate(38.26671875000001 60.25)"/><use xlink:href="#H" transform="matrix(1,0,0,1,730.1062629658064,685.6882642485463) translate(109.33117187500001 60.25)"/><use xlink:href="#E" transform="matrix(1,0,0,1,730.1062629658064,685.6882642485463) translate(128.18859375 60.25)"/><path d="M860.98 830.5H859v-1.86H861zm0-23.37H859v-7.08H861z" stroke="#000" stroke-width=".05"/><path d="M860 799.05l.98-.04v1.08H859V799z"/><path stroke="#000" stroke-width=".05"/><path d="M860 845.76l-4.63-14.26h9.26z"/><path d="M860 848.92l-5.98-18.4h11.96zm-3.3-16.45l3.3 10.14 3.3-10.13z" stroke="#000" stroke-width=".05"/><use xlink:href="#o" transform="matrix(1,0,0,1,844.2013888888889,807.1335535079355) translate(0 17.22222222222222)"/><path d="M672.7 740.98H653V739h19.73zm36.8 0h-12.34V739h12.35z" stroke="#000" stroke-width=".05"/><path d="M653 740.98h-1.16l.05-.14.08-.84-.1-.84-.04-.13H653z"/><path stroke="#000" stroke-width=".05"/><path d="M724.78 740l-14.27 4.63v-9.26z"/><path d="M727.93 740l-18.4 5.98v-11.96zm-16.44 3.3l10.13-3.3-10.14-3.3z" stroke="#000" stroke-width=".05"/><use xlink:href="#y" transform="matrix(1,0,0,1,672.7063446481334,729.2447916666666) translate(0 17.22222222222222)"/><path d="M740 856a6 6 0 0 1 6-6h228a6 6 0 0 1 6 6v48a6 6 0 0 1-6 6H746a6 6 0 0 1-6-6z" stroke="#000" stroke-width="2" fill-opacity="0"/><use xlink:href="#z" transform="matrix(1,0,0,1,745,855) translate(38.92578125 22.5)"/><use xlink:href="#A" transform="matrix(1,0,0,1,745,855) translate(125.068359375 22.5)"/><use xlink:href="#I" transform="matrix(1,0,0,1,745,855) translate(143.92578125 22.5)"/><use xlink:href="#C" transform="matrix(1,0,0,1,745,855) translate(28.642578125 46.69921875)"/><use xlink:href="#A" transform="matrix(1,0,0,1,745,855) translate(135.3515625 46.69921875)"/><use xlink:href="#J" transform="matrix(1,0,0,1,745,855) translate(154.208984375 46.69921875)"/><path d="M860 912v25.26" stroke="#000" stroke-width="2" fill="none"/><path d="M860.98 912.03H859V911H861z" stroke="#000" stroke-width=".05"/><path d="M860 952.53l-4.63-14.27h9.26z" stroke="#000" stroke-width="2"/><path d="M740 962.76a6 6 0 0 1 6-6h228a6 6 0 0 1 6 6v28a6 6 0 0 1-6 6H746a6 6 0 0 1-6-6z" stroke="#000" stroke-width="2" fill-opacity="0"/><use xlink:href="#v" transform="matrix(1,0,0,1,745,961.7651656398081) translate(53.046875 23.125)"/><use xlink:href="#w" transform="matrix(1,0,0,1,745,961.7651656398081) translate(139.1796875 23.125)"/><path d="M1055.1 739.1l1.06.26 1 .42.94.58.83.7.7.84.6.93.4 1 .26 1.08.07 1.06v288.77l-.08 1.05-.26 1.07-.42 1-.58.94-.7.82-.84.7-.93.6-1 .4-1.08.26-1.06.08h-1208l-.83.07-.75.18-.73.3-.67.42-.6.52-.5.6-.42.67-.3.74-.2.76-.06.83v43.77h-1.94v-43.85l.08-1.05.26-1.07.42-1 .57-.94.72-.85.83-.7.93-.58 1-.42 1.08-.25 1.06-.1h1208l.83-.05.75-.2.73-.3.67-.4.6-.5.5-.6.42-.68.3-.73.2-.77.06-.82v-288.6l-.07-.84-.18-.75-.3-.73-.42-.67-.5-.6-.6-.5-.68-.43-.73-.3-.76-.18-.84-.06h-12.88V739h12.96zM992.97 741V739h23.64V741z" stroke="#000" stroke-width=".05"/><path d="M993 740.98h-1.16l.05-.14.08-.84-.1-.84-.04-.13H993z"/><path stroke="#000" stroke-width=".05"/><path d="M-160 1105.76l-4.63-14.26h9.26z"/><path d="M-160 1108.92l-5.98-18.4h11.96zm-3.3-16.45l3.3 10.14 3.3-10.13z" stroke="#000" stroke-width=".05"/><use xlink:href="#y" transform="matrix(1,0,0,1,1016.6249213788046,729.244791574286) translate(0 17.22222222222222)"/><path d="M-280 1116a6 6 0 0 1 6-6h228a6 6 0 0 1 6 6v48a6 6 0 0 1-6 6h-228a6 6 0 0 1-6-6z" stroke="#000" stroke-width="2" fill-opacity="0"/><use xlink:href="#K" transform="matrix(1,0,0,1,-275,1115.000000092733) translate(5.0341796875 31.875)"/><use xlink:href="#d" transform="matrix(1,0,0,1,-275,1115.000000092733) translate(105.6689453125 31.875)"/><use xlink:href="#L" transform="matrix(1,0,0,1,-275,1115.000000092733) translate(152.3681640625 31.875)"/><path d="M60 1116a6 6 0 0 1 6-6h228a6 6 0 0 1 6 6v48a6 6 0 0 1-6 6H66a6 6 0 0 1-6-6z" stroke="#000" stroke-width="2" fill-opacity="0"/><use xlink:href="#M" transform="matrix(1,0,0,1,65,1115.000000092733) translate(15.60546875 22.5)"/><use xlink:href="#r" transform="matrix(1,0,0,1,65,1115.000000092733) translate(101.40625 22.5)"/><use xlink:href="#N" transform="matrix(1,0,0,1,65,1115.000000092733) translate(170.283203125 22.5)"/><use xlink:href="#O" transform="matrix(1,0,0,1,65,1115.000000092733) translate(74.4287109375 46.69921875)"/><path d="M-38 1140h78.5" stroke="#000" stroke-width="2" fill="none"/><path d="M-37.97 1140.97H-39v-1.94h1.03z" stroke="#000" stroke-width=".05"/><path d="M55.76 1140l-14.26 4.63v-9.27z" stroke="#000" stroke-width="2"/><path d="M514.62 1083.35a12.14 12.14 0 0 1 10.76 0l109.24 54a2.96 2.96 0 0 1 0 5.3l-109.24 54a12.14 12.14 0 0 1-10.76 0l-109.24-54a2.96 2.96 0 0 1 0-5.3z" stroke="#000" stroke-width="2" fill-opacity="0"/><g><use xlink:href="#P" transform="matrix(1,0,0,1,404.9999999999999,1085.6882643412791) translate(62.192499999999995 60.25)"/><use xlink:href="#H" transform="matrix(1,0,0,1,404.9999999999999,1085.6882643412791) translate(126.11828125 60.25)"/><use xlink:href="#n" transform="matrix(1,0,0,1,404.9999999999999,1085.6882643412791) translate(144.975703125 60.25)"/></g><path d="M302 1140h82.22" stroke="#000" stroke-width="2" fill="none"/><path d="M302.03 1140.97H301v-1.94h1.03z" stroke="#000" stroke-width=".05"/><path d="M399.5 1140l-14.28 4.63v-9.27z" stroke="#000" stroke-width="2"/><path d="M-159.03 1232.87l.07.83.18.76.3.73.42.66.5.6.6.5.68.43.73.3.76.17.84.07h307.78v1.95h-307.86l-1.05-.1-1.06-.25-1-.42-.94-.57-.83-.7-.72-.85-.57-.92-.42-1-.25-1.08-.07-1.05v-43.45h1.94zm680 .08l-.08 1.05-.26 1.07-.42 1-.58.94-.7.85-.84.7-.93.58-1 .42-1.08.25-1.06.1H178.27v-1.96h335.7l.82-.07.75-.18.73-.3.67-.43.6-.5.5-.6.43-.68.3-.74.18-.76.06-.83v-32.96H521z" stroke="#000" stroke-width=".05"/><path d="M520 1198.9l.98-.03v1.07H519v-1.07z"/><path stroke="#000" stroke-width=".05"/><path d="M-155.37 1188.5h-9.26l4.63-14.26z"/><path d="M-154.02 1189.48h-11.96l5.98-18.4zm-9.27-1.95h6.6l-3.3-10.14z" stroke="#000" stroke-width=".05"/><g><use xlink:href="#y" transform="matrix(1,0,0,1,153.81794763197405,1228.1557214954516) translate(0 17.22222222222222)"/></g><path d="M740 1126.7a6 6 0 0 1 6-6h228a6 6 0 0 1 6 6v28a6 6 0 0 1-6 6H746a6 6 0 0 1-6-6z" stroke="#000" stroke-width="2" fill-opacity="0"/><g><use xlink:href="#Q" transform="matrix(1,0,0,1,745,1125.6882643412794) translate(0.5810546875 23.125)"/><use xlink:href="#d" transform="matrix(1,0,0,1,745,1125.6882643412794) translate(110.1220703125 23.125)"/><use xlink:href="#L" transform="matrix(1,0,0,1,745,1125.6882643412794) translate(156.8212890625 23.125)"/></g><path d="M720.5 1139.03v1.95h-16.56v-1.95zm-82.22 1.94v-1.94h34.06v1.94z" stroke="#000" stroke-width=".05"/><path d="M638.3 1140.97h-1.15l.13-.97-.1-.88 1.12-.1z"/><path stroke="#000" stroke-width=".05"/><path d="M735.76 1140l-14.26 4.64v-9.27z"/><path d="M738.92 1140l-18.4 5.98v-11.95zm-16.45 3.3l10.14-3.3-10.13-3.3z" stroke="#000" stroke-width=".05"/><g><use xlink:href="#o" transform="matrix(1,0,0,1,672.3408396083818,1129.2462078424085) translate(0 17.22222222222222)"/></g><path d="M740 1226.7a6 6 0 0 1 6-6h228a6 6 0 0 1 6 6v70.6a6 6 0 0 1-6 6H746a6 6 0 0 1-6-6z" stroke="#000" stroke-width="2" fill-opacity="0"/><g><use xlink:href="#R" transform="matrix(1,0,0,1,745,1225.6882643412791) translate(10.4931640625 21.65625)"/><use xlink:href="#S" transform="matrix(1,0,0,1,745,1225.6882643412791) translate(54.4091796875 21.65625)"/><use xlink:href="#T" transform="matrix(1,0,0,1,745,1225.6882643412791) translate(166.5869140625 21.65625)"/><use xlink:href="#U" transform="matrix(1,0,0,1,745,1225.6882643412791) translate(28.740234375 45.85546875)"/><use xlink:href="#V" transform="matrix(1,0,0,1,745,1225.6882643412791) translate(52.705078125 45.85546875)"/><use xlink:href="#W" transform="matrix(1,0,0,1,745,1225.6882643412791) translate(126.09375 45.85546875)"/><use xlink:href="#X" transform="matrix(1,0,0,1,745,1225.6882643412791) translate(179.47265625 45.85546875)"/><use xlink:href="#Y" transform="matrix(1,0,0,1,745,1225.6882643412791) translate(67.1484375 70.0546875)"/></g><path d="M860 1162.7v38.5" stroke="#000" stroke-width="2" fill="none"/><path d="M860.98 1162.7H859v-1H861z" stroke="#000" stroke-width=".05"/><path d="M860 1216.45l-4.63-14.26h9.26z" stroke="#000" stroke-width="2"/><path d="M740 1346.7a6 6 0 0 1 6-6h228a6 6 0 0 1 6 6v70.6a6 6 0 0 1-6 6H746a6 6 0 0 1-6-6z" stroke="#000" stroke-width="2" fill-opacity="0"/><g><use xlink:href="#Z" transform="matrix(1,0,0,1,745,1345.6882643412791) translate(13.818359375 30.78125)"/><use xlink:href="#d" transform="matrix(1,0,0,1,745,1345.6882643412791) translate(69.47265625 30.78125)"/><use xlink:href="#aa" transform="matrix(1,0,0,1,745,1345.6882643412791) translate(116.171875 30.78125)"/><use xlink:href="#X" transform="matrix(1,0,0,1,745,1345.6882643412791) translate(194.39453125 30.78125)"/><use xlink:href="#ab" transform="matrix(1,0,0,1,745,1345.6882643412791) translate(76.2646484375 54.98046875)"/></g><path d="M860 1305.3v15.9" stroke="#000" stroke-width="2" fill="none"/><path d="M860.98 1305.3H859v-1H861z" stroke="#000" stroke-width=".05"/><path d="M860 1336.45l-4.63-14.26h9.26z" stroke="#000" stroke-width="2"/><path d="M860 1425.3v24.4" stroke="#000" stroke-width="2" fill="none"/><path d="M860.98 1425.3H859v-1H861z" stroke="#000" stroke-width=".05"/><path d="M860 1464.95l-4.63-14.26h9.26z" stroke="#000" stroke-width="2"/><path d="M740 1475.2a6 6 0 0 1 6-6h228a6 6 0 0 1 6 6v28a6 6 0 0 1-6 6H746a6 6 0 0 1-6-6z" stroke="#000" stroke-width="2" fill-opacity="0"/><g><use xlink:href="#v" transform="matrix(1,0,0,1,745,1474.1883143412788) translate(53.046875 23.125)"/><use xlink:href="#w" transform="matrix(1,0,0,1,745,1474.1883143412788) translate(139.1796875 23.125)"/></g><path d="M-78.58 564.53h121.2" stroke="#3a414a" fill="none"/><path d="M-78.57 565h-.54l.05-.94h.48z" stroke="#3a414a" stroke-width=".05" fill="#3a414a"/><path d="M57.38 564.53l-14.26 4.64v-9.27z" stroke="#3a414a" fill="#3a414a"/><path d="M301.5 564.53h81.12" stroke="#3a414a" fill="none"/><path d="M301.5 565h-.5v-.94h.5z" stroke="#3a414a" stroke-width=".05" fill="#3a414a"/><path d="M397.38 564.53l-14.26 4.64v-9.27z" stroke="#3a414a" fill="#3a414a"/><path d="M641.5 564.53H675a6 6 0 0 1 6 6v66.93a6 6 0 0 1-6 6h-829a6 6 0 0 0-6 6v15.25" stroke="#3a414a" fill="none"/><path d="M641.5 565h-.5v-.94h.5z" stroke="#3a414a" stroke-width=".05" fill="#3a414a"/><path d="M-160 679.47l-4.63-14.26h9.26z" stroke="#3a414a" fill="#3a414a"/><defs><path d="M783 20c-382 0-661-292-661-764 0-473 279-766 661-766 302 0 548 182 601 489h-190c-42-204-217-313-411-313-268 0-476 208-476 590 0 381 209 588 476 588 195 0 369-110 411-313h190c-52 303-296 489-601 489" id="ac"/><path d="M471 26C259 26 90-98 90-318c0-256 228-303 435-329 202-27 287-16 287-108 0-139-79-219-234-219-161 0-248 86-283 164l-173-57c86-203 278-265 451-265 150 0 419 46 419 395V0H815v-152h-12C765-73 660 26 471 26zm31-159c199 0 310-134 310-271v-155c-30 35-226 55-295 64-131 17-246 59-246 186 0 116 97 176 231 176" id="ad"/><path d="M338-1490V0H158v-1490h180" id="ae"/><g id="a"><use transform="matrix(0.009765625,0,0,0.009765625,0,0)" xlink:href="#ac"/><use transform="matrix(0.009765625,0,0,0.009765625,14.609375,0)" xlink:href="#ad"/><use transform="matrix(0.009765625,0,0,0.009765625,25.83984375,0)" xlink:href="#ae"/><use transform="matrix(0.009765625,0,0,0.009765625,30.68359375,0)" xlink:href="#ae"/></g><path d="M180 0v-1490h270l367 940c28 72 75 218 110 339 35-117 81-264 110-339l362-940h271V0h-187c2-448-5-837 7-1287-157 497-311 829-483 1287H842C666-458 514-784 354-1284c12 438 5 843 7 1284H180" id="af"/><path d="M158 0v-1118h180V0H158zm91-1301c-68 0-125-53-125-119s57-119 125-119c69 0 126 53 126 119s-57 119-126 119" id="ag"/><path d="M338-670V0H158v-1118h173l1 207c72-158 192-221 342-221 226 0 378 139 378 422V0H872v-695c0-172-96-275-252-275-161 0-282 109-282 300" id="ah"/><g id="b"><use transform="matrix(0.009765625,0,0,0.009765625,0,0)" xlink:href="#af"/><use transform="matrix(0.009765625,0,0,0.009765625,18.06640625,0)" xlink:href="#ad"/><use transform="matrix(0.009765625,0,0,0.009765625,29.296875,0)" xlink:href="#ag"/><use transform="matrix(0.009765625,0,0,0.009765625,34.140625,0)" xlink:href="#ah"/></g><path d="M180 0v-1490h190v1322h690V0H180" id="ai"/><path d="M613 24c-304 0-509-231-509-576 0-350 205-580 509-580 305 0 511 230 511 580 0 345-206 576-511 576zm0-161c226 0 329-195 329-415 0-222-103-419-329-419-223 0-326 196-326 419 0 220 103 415 326 415" id="aj"/><path d="M577 24c-279 0-473-224-473-580 0-354 195-576 474-576 218 0 287 134 324 193h14v-551h180V0H922v-173h-20C865-111 790 24 577 24zm27-161c203 0 314-172 314-421 0-247-108-413-314-413-212 0-317 181-317 413 0 235 108 421 317 421" id="ak"/><g id="c"><use transform="matrix(0.009765625,0,0,0.009765625,0,0)" xlink:href="#ai"/><use transform="matrix(0.009765625,0,0,0.009765625,11.30859375,0)" xlink:href="#aj"/><use transform="matrix(0.009765625,0,0,0.009765625,23.49609375,0)" xlink:href="#ad"/><use transform="matrix(0.009765625,0,0,0.009765625,34.7265625,0)" xlink:href="#ak"/></g><path d="M158 418v-1536h174v179h20c37-59 106-193 324-193 279 0 474 222 474 576 0 356-194 580-473 580-213 0-288-135-325-197h-14v591H158zm492-555c209 0 317-186 317-421 0-232-105-413-317-413-206 0-314 166-314 413 0 249 111 421 314 421" id="al"/><g id="d"><use transform="matrix(0.009765625,0,0,0.009765625,0,0)" xlink:href="#ae"/><use transform="matrix(0.009765625,0,0,0.009765625,4.84375,0)" xlink:href="#aj"/><use transform="matrix(0.009765625,0,0,0.009765625,16.8359375,0)" xlink:href="#aj"/><use transform="matrix(0.009765625,0,0,0.009765625,28.828125,0)" xlink:href="#al"/></g><path d="M613 24c-304 0-509-231-509-576 0-350 205-580 509-580 216 0 392 114 453 309l-173 49c-33-115-133-197-280-197-223 0-326 196-326 419 0 220 103 415 326 415 150 0 252-85 285-206l172 49C1010-95 832 24 613 24" id="am"/><path d="M537 14c-226 0-379-139-379-422v-710h180v695c0 172 97 275 253 275 160 0 281-109 281-300v-670h181V0H879v-209C806-46 684 14 537 14" id="an"/><path d="M598-1118v154H368v674c0 100 37 144 132 144 23 0 62-6 92-12L629-6c-37 13-88 20-134 20-193 0-307-107-307-290v-688H20v-154h168v-266h180v266h230" id="ao"/><path d="M628 24c-324 0-524-230-524-574 0-343 198-582 503-582 237 0 487 146 487 559v75H286c9 234 145 362 343 362 132 0 231-58 273-172l174 48C1024-91 857 24 628 24zM287-650h624c-17-190-120-322-304-322-192 0-309 151-320 322" id="ap"/><path d="M158 0v-1118h174v172h12c41-113 157-188 290-188 26 0 70 2 91 3v181c-11-2-60-10-108-10-161 0-279 109-279 260V0H158" id="aq"/><path d="M128 359l88-567h206L266 359H128" id="ar"/><g id="e"><use transform="matrix(0.009765625,0,0,0.009765625,0,0)" xlink:href="#am"/><use transform="matrix(0.009765625,0,0,0.009765625,11.42578125,0)" xlink:href="#aj"/><use transform="matrix(0.009765625,0,0,0.009765625,23.41796875,0)" xlink:href="#an"/><use transform="matrix(0.009765625,0,0,0.009765625,35.244140625,0)" xlink:href="#ah"/><use transform="matrix(0.009765625,0,0,0.009765625,47.060546875,0)" xlink:href="#ao"/><use transform="matrix(0.009765625,0,0,0.009765625,53.408203125,0)" xlink:href="#ap"/><use transform="matrix(0.009765625,0,0,0.009765625,65.068359375,0)" xlink:href="#aq"/><use transform="matrix(0.009765625,0,0,0.009765625,71.34765625,0)" xlink:href="#ar"/></g><path d="M126 0v-134l627-806v-11H146v-167h839v143L376-178v11h629V0H126" id="as"/><g id="f"><use transform="matrix(0.009765625,0,0,0.009765625,0,0)" xlink:href="#as"/><use transform="matrix(0.009765625,0,0,0.009765625,10.751953125,0)" xlink:href="#ap"/><use transform="matrix(0.009765625,0,0,0.009765625,22.412109375,0)" xlink:href="#aq"/><use transform="matrix(0.009765625,0,0,0.009765625,29.609375,0)" xlink:href="#aj"/></g><path d="M1096 418H916v-591h-14C865-111 790 24 577 24c-279 0-473-224-473-580 0-354 195-576 474-576 218 0 287 134 324 193h20v-179h174V418zM604-137c203 0 314-172 314-421 0-247-108-413-314-413-212 0-317 181-317 413 0 235 108 421 317 421" id="at"/><g id="g"><use transform="matrix(0.009765625,0,0,0.009765625,0,0)" xlink:href="#at"/><use transform="matrix(0.009765625,0,0,0.009765625,12.24609375,0)" xlink:href="#an"/><use transform="matrix(0.009765625,0,0,0.009765625,24.072265625,0)" xlink:href="#aj"/><use transform="matrix(0.009765625,0,0,0.009765625,36.064453125,0)" xlink:href="#ao"/><use transform="matrix(0.009765625,0,0,0.009765625,42.607421875,0)" xlink:href="#ag"/><use transform="matrix(0.009765625,0,0,0.009765625,47.451171875,0)" xlink:href="#ap"/><use transform="matrix(0.009765625,0,0,0.009765625,59.111328125,0)" xlink:href="#ah"/><use transform="matrix(0.009765625,0,0,0.009765625,70.927734375,0)" xlink:href="#ao"/></g><g id="h"><use transform="matrix(0.009765625,0,0,0.009765625,0,0)" xlink:href="#ad"/><use transform="matrix(0.009765625,0,0,0.009765625,11.23046875,0)" xlink:href="#ah"/><use transform="matrix(0.009765625,0,0,0.009765625,23.046875,0)" xlink:href="#ak"/></g><path d="M158 0v-1118h175l1 205c55-151 181-225 313-225 147 0 245 90 285 228 53-141 190-228 352-228 194 0 352 125 352 384V0h-181v-749c0-161-105-225-225-225-151 0-243 103-243 244V0H807v-767c0-124-93-207-219-207-131 0-250 92-250 270V0H158" id="au"/><g id="i"><use transform="matrix(0.009765625,0,0,0.009765625,0,0)" xlink:href="#aq"/><use transform="matrix(0.009765625,0,0,0.009765625,7.197265625,0)" xlink:href="#ap"/><use transform="matrix(0.009765625,0,0,0.009765625,18.857421875,0)" xlink:href="#au"/><use transform="matrix(0.009765625,0,0,0.009765625,36.376953125,0)" xlink:href="#ad"/><use transform="matrix(0.009765625,0,0,0.009765625,47.607421875,0)" xlink:href="#ag"/><use transform="matrix(0.009765625,0,0,0.009765625,52.451171875,0)" xlink:href="#ah"/><use transform="matrix(0.009765625,0,0,0.009765625,64.267578125,0)" xlink:href="#ak"/><use transform="matrix(0.009765625,0,0,0.009765625,76.513671875,0)" xlink:href="#ap"/><use transform="matrix(0.009765625,0,0,0.009765625,88.173828125,0)" xlink:href="#aq"/></g><g id="j"><use transform="matrix(0.009765625,0,0,0.009765625,0,0)" xlink:href="#ag"/><use transform="matrix(0.009765625,0,0,0.009765625,4.84375,0)" xlink:href="#ah"/></g><path d="M657 26c-323 0-524-166-541-416h195c15 169 171 246 346 246 202 0 356-106 356-265 5-203-294-238-475-293-239-73-380-191-380-389 0-252 224-419 512-419 294 0 499 171 508 396H992c-17-145-151-228-328-228-193 0-321 102-321 242 0 156 175 211 284 241l149 41c160 44 422 134 422 412 0 244-197 432-541 432" id="av"/><path d="M180 0v-1490h510c348 0 508 194 508 460 0 198-88 351-276 417L1256 0h-220L726-579c-117 2-238 0-356 1V0H180zm190-747h312c235 0 327-108 327-283 0-177-92-293-329-293H370v576" id="aw"/><path d="M52 0l541-1490h220L1361 0h-200l-149-416H398L254 0H52zm404-582h497c-103-290-145-390-251-756-108 377-145 460-246 756" id="ax"/><g id="k"><use transform="matrix(0.009765625,0,0,0.009765625,0,0)" xlink:href="#av"/><use transform="matrix(0.009765625,0,0,0.009765625,12.83203125,0)" xlink:href="#aw"/><use transform="matrix(0.009765625,0,0,0.009765625,25.703125,0)" xlink:href="#ax"/><use transform="matrix(0.009765625,0,0,0.009765625,39.501953125,0)" xlink:href="#af"/></g><path d="M645 0H180v-1490h484c435 0 692 280 692 742 0 466-257 748-711 748zM370-168h263c363 0 539-218 539-580 0-358-176-574-521-574H370v1154" id="ay"/><path d="M481 0L54-1118h197c107 314 236 620 325 951 87-331 217-637 324-951h197L670 0H481" id="az"/><g id="l"><use transform="matrix(0.009765625,0,0,0.009765625,0,0)" xlink:href="#ay"/><use transform="matrix(0.009765625,0,0,0.009765625,14.43359375,0)" xlink:href="#ag"/><use transform="matrix(0.009765625,0,0,0.009765625,19.27734375,0)" xlink:href="#az"/><use transform="matrix(0.009765625,0,0,0.009765625,30.517578125,0)" xlink:href="#ag"/><use transform="matrix(0.009765625,0,0,0.009765625,35.361328125,0)" xlink:href="#ak"/><use transform="matrix(0.009765625,0,0,0.009765625,47.607421875,0)" xlink:href="#ap"/><use transform="matrix(0.009765625,0,0,0.009765625,59.267578125,0)" xlink:href="#ah"/><use transform="matrix(0.009765625,0,0,0.009765625,71.083984375,0)" xlink:href="#ak"/></g><path d="M226-283v-166h904v166H226zm0-434v-166h904v166H226" id="aA"/><g id="m"><use transform="matrix(0.009765625,0,0,0.009765625,0,0)" xlink:href="#aA"/><use transform="matrix(0.009765625,0,0,0.009765625,13.232421875,0)" xlink:href="#aA"/></g><path d="M646 20c-332 0-524-278-524-764 0-483 194-766 524-766s524 283 524 766c0 485-191 764-524 764zm0-166c218 0 341-220 341-598 0-380-123-601-341-601s-341 222-341 601c0 378 123 598 341 598" id="aB"/><path d="M383-449c-3-277 82-343 222-425 88-53 156-134 156-250 0-139-108-227-243-227-118 0-235 70-246 236H82c10-251 200-395 436-395 259 0 427 165 427 393 0 161-74 273-203 352-132 80-180 132-178 316H383zm93 462c-75 0-135-60-135-134 0-75 60-135 135-135 74 0 134 60 134 135 0 74-60 134-134 134" id="aC"/><g id="n"><use transform="matrix(0.009765625,0,0,0.009765625,0,0)" xlink:href="#aB"/><use transform="matrix(0.009765625,0,0,0.009765625,12.6171875,0)" xlink:href="#aC"/></g><path fill="#333" d="M601 0v-560L49-1490h357l252 464c38 68 67 130 97 208 96-243 225-446 337-672h356L905-560V0H601" id="aD"/><path fill="#333" d="M633 22C291 22 81-200 81-553c0-345 210-579 537-579 292 0 525 185 525 567v84H378c7 183 109 277 260 277 105 0 184-46 216-132l272 51C1071-99 893 22 633 22zM380-669h474c-15-146-94-237-233-237-143 0-229 99-241 237" id="aE"/><path fill="#333" d="M572 22C302 22 117-98 78-306l279-48c29 105 101 156 224 156 114 0 185-48 185-115 0-118-228-130-337-155-215-49-322-150-322-317 0-215 187-347 470-347 265 0 424 116 466 298l-266 47c-24-76-87-130-196-130-98 0-174 46-174 113 0 56 38 95 144 117l201 40c216 44 320 143 320 302 0 220-207 367-500 367" id="aF"/><g id="o"><use transform="matrix(0.008680555555555556,0,0,0.008680555555555556,0,0)" xlink:href="#aD"/><use transform="matrix(0.008680555555555556,0,0,0.008680555555555556,11.050347222222223,0)" xlink:href="#aE"/><use transform="matrix(0.008680555555555556,0,0,0.008680555555555556,21.640625,0)" xlink:href="#aF"/></g><g id="p"><use transform="matrix(0.009765625,0,0,0.009765625,0,0)" xlink:href="#ak"/><use transform="matrix(0.009765625,0,0,0.009765625,12.24609375,0)" xlink:href="#ag"/><use transform="matrix(0.009765625,0,0,0.009765625,17.08984375,0)" xlink:href="#az"/><use transform="matrix(0.009765625,0,0,0.009765625,28.330078125,0)" xlink:href="#ag"/><use transform="matrix(0.009765625,0,0,0.009765625,33.173828125,0)" xlink:href="#ak"/><use transform="matrix(0.009765625,0,0,0.009765625,45.419921875,0)" xlink:href="#ap"/><use transform="matrix(0.009765625,0,0,0.009765625,57.080078125,0)" xlink:href="#ah"/><use transform="matrix(0.009765625,0,0,0.009765625,68.896484375,0)" xlink:href="#ak"/></g><g id="q"><use transform="matrix(0.009765625,0,0,0.009765625,0,0)" xlink:href="#ad"/><use transform="matrix(0.009765625,0,0,0.009765625,11.23046875,0)" xlink:href="#ah"/><use transform="matrix(0.009765625,0,0,0.009765625,23.046875,0)" xlink:href="#ak"/></g><path d="M538 24C308 24 148-78 108-271l171-41c32 123 123 178 257 178 156 0 256-77 256-169 0-77-54-128-164-154l-186-44c-203-48-300-148-300-305 0-192 176-326 414-326 230 0 351 112 402 269l-163 42c-31-80-94-158-238-158-133 0-233 69-233 162 0 83 57 129 188 160l169 40c203 48 298 149 298 302 0 196-179 339-441 339" id="aG"/><g id="r"><use transform="matrix(0.009765625,0,0,0.009765625,0,0)" xlink:href="#ak"/><use transform="matrix(0.009765625,0,0,0.009765625,12.24609375,0)" xlink:href="#ag"/><use transform="matrix(0.009765625,0,0,0.009765625,17.08984375,0)" xlink:href="#az"/><use transform="matrix(0.009765625,0,0,0.009765625,28.330078125,0)" xlink:href="#ag"/><use transform="matrix(0.009765625,0,0,0.009765625,33.173828125,0)" xlink:href="#aG"/><use transform="matrix(0.009765625,0,0,0.009765625,43.73046875,0)" xlink:href="#aj"/><use transform="matrix(0.009765625,0,0,0.009765625,55.72265625,0)" xlink:href="#aq"/></g><path d="M678-1118v154H420V0H240v-964H20v-154h220v-149c0-194 155-293 318-293 85 0 141 18 168 30l-50 154c-19-6-47-17-97-17-111 0-159 58-159 166v109h258" id="aH"/><g id="s"><use transform="matrix(0.009765625,0,0,0.009765625,0,0)" xlink:href="#aH"/><use transform="matrix(0.009765625,0,0,0.009765625,7.40234375,0)" xlink:href="#aq"/><use transform="matrix(0.009765625,0,0,0.009765625,14.599609375,0)" xlink:href="#aj"/><use transform="matrix(0.009765625,0,0,0.009765625,26.591796875,0)" xlink:href="#au"/></g><path d="M370-1490V0H180v-1490h190" id="aI"/><g id="t"><use transform="matrix(0.009765625,0,0,0.009765625,0,0)" xlink:href="#ai"/><use transform="matrix(0.009765625,0,0,0.009765625,11.30859375,0)" xlink:href="#ay"/><use transform="matrix(0.009765625,0,0,0.009765625,25.7421875,0)" xlink:href="#aI"/></g><g id="u"><use transform="matrix(0.009765625,0,0,0.009765625,0,0)" xlink:href="#am"/><use transform="matrix(0.009765625,0,0,0.009765625,11.62109375,0)" xlink:href="#ad"/><use transform="matrix(0.009765625,0,0,0.009765625,22.8515625,0)" xlink:href="#ae"/><use transform="matrix(0.009765625,0,0,0.009765625,27.6953125,0)" xlink:href="#ae"/><use transform="matrix(0.009765625,0,0,0.009765625,32.5390625,0)" xlink:href="#aG"/></g><path d="M180 0v-1490h510c348 0 508 209 508 474 0 266-160 477-507 477H370V0H180zm190-706h312c236 0 327-133 327-310 0-176-91-307-329-307H370v617" id="aJ"/><path d="M611 442c-248 0-391-105-460-228l146-94c47 65 117 165 314 165 178 0 307-82 307-266v-224h-17C863-141 792-18 576-18c-268 0-472-195-472-546 0-346 197-568 476-568 216 0 288 133 326 193h17v-179h175V29c0 289-215 413-487 413zm-5-620c203 0 314-146 314-390 0-237-108-403-314-403-213 0-319 180-319 403 0 230 109 390 319 390" id="aK"/><g id="v"><use transform="matrix(0.009765625,0,0,0.009765625,0,0)" xlink:href="#aJ"/><use transform="matrix(0.009765625,0,0,0.009765625,12.7734375,0)" xlink:href="#aq"/><use transform="matrix(0.009765625,0,0,0.009765625,19.970703125,0)" xlink:href="#aj"/><use transform="matrix(0.009765625,0,0,0.009765625,31.962890625,0)" xlink:href="#aK"/><use transform="matrix(0.009765625,0,0,0.009765625,44.228515625,0)" xlink:href="#aq"/><use transform="matrix(0.009765625,0,0,0.009765625,51.7578125,0)" xlink:href="#ad"/><use transform="matrix(0.009765625,0,0,0.009765625,62.98828125,0)" xlink:href="#au"/></g><path d="M180 0v-1490h190v644h782v-644h190V0h-190v-678H370V0H180" id="aL"/><g id="w"><use transform="matrix(0.009765625,0,0,0.009765625,0,0)" xlink:href="#aL"/><use transform="matrix(0.009765625,0,0,0.009765625,14.86328125,0)" xlink:href="#ad"/><use transform="matrix(0.009765625,0,0,0.009765625,26.09375,0)" xlink:href="#ae"/><use transform="matrix(0.009765625,0,0,0.009765625,31.23046875,0)" xlink:href="#ao"/></g><g id="x"><use transform="matrix(0.009765625,0,0,0.009765625,0,0)" xlink:href="#ay"/><use transform="matrix(0.009765625,0,0,0.009765625,14.43359375,0)" xlink:href="#ag"/><use transform="matrix(0.009765625,0,0,0.009765625,19.27734375,0)" xlink:href="#az"/><use transform="matrix(0.009765625,0,0,0.009765625,30.517578125,0)" xlink:href="#ag"/><use transform="matrix(0.009765625,0,0,0.009765625,35.361328125,0)" xlink:href="#aG"/><use transform="matrix(0.009765625,0,0,0.009765625,45.91796875,0)" xlink:href="#aj"/><use transform="matrix(0.009765625,0,0,0.009765625,57.91015625,0)" xlink:href="#aq"/></g><path fill="#333" d="M135 0v-1490h340l471 754c59 97 122 210 187 365-32-387-14-721-19-1119h312V0h-341C855-382 627-689 427-1113c32 420 16 695 20 1113H135" id="aM"/><path fill="#333" d="M628 22C291 22 81-210 81-554c0-346 210-578 547-578 336 0 547 232 547 578 0 344-211 576-547 576zm0-236c160 0 242-146 242-341 0-197-82-341-242-341S387-753 387-555c0 195 81 341 241 341" id="aN"/><g id="y"><use transform="matrix(0.008680555555555556,0,0,0.008680555555555556,0,0)" xlink:href="#aM"/><use transform="matrix(0.008680555555555556,0,0,0.008680555555555556,13.550347222222223,0)" xlink:href="#aN"/></g><path d="M784 20c-382 0-662-292-662-764 0-473 280-766 662-766s660 293 660 766c0 282-99 499-260 629l192 255h-198L1049-33C969 2 880 20 784 20zm-62-486h198l156 205c112-98 183-261 183-483 0-383-209-590-475-590-268 0-477 208-477 590 0 380 209 588 477 588 54 0 106-9 154-25" id="aO"/><g id="z"><use transform="matrix(0.009765625,0,0,0.009765625,0,0)" xlink:href="#aO"/><use transform="matrix(0.009765625,0,0,0.009765625,15.29296875,0)" xlink:href="#an"/><use transform="matrix(0.009765625,0,0,0.009765625,27.119140625,0)" xlink:href="#aj"/><use transform="matrix(0.009765625,0,0,0.009765625,39.111328125,0)" xlink:href="#ao"/><use transform="matrix(0.009765625,0,0,0.009765625,45.654296875,0)" xlink:href="#ag"/><use transform="matrix(0.009765625,0,0,0.009765625,50.498046875,0)" xlink:href="#ap"/><use transform="matrix(0.009765625,0,0,0.009765625,62.158203125,0)" xlink:href="#ah"/><use transform="matrix(0.009765625,0,0,0.009765625,73.974609375,0)" xlink:href="#ao"/></g><use transform="matrix(0.009765625,0,0,0.009765625,0,0)" xlink:href="#aA" id="A"/><path d="M65 0l393-574-370-544h210c88 136 192 297 267 435 67-142 176-302 264-435h206L661-564 1053 0H844c-94-144-206-310-287-458C484-308 366-142 273 0H65" id="aP"/><path d="M180 0v-1490h908v168H370v486h669v168H370v500h727V0H180" id="aQ"/><g id="B"><use transform="matrix(0.009765625,0,0,0.009765625,0,0)" xlink:href="#aB"/><use transform="matrix(0.009765625,0,0,0.009765625,12.6171875,0)" xlink:href="#aP"/><use transform="matrix(0.009765625,0,0,0.009765625,23.53515625,0)" xlink:href="#aQ"/><use transform="matrix(0.009765625,0,0,0.009765625,35.556640625,0)" xlink:href="#aQ"/></g><g id="C"><use transform="matrix(0.009765625,0,0,0.009765625,0,0)" xlink:href="#aw"/><use transform="matrix(0.009765625,0,0,0.009765625,12.578125,0)" xlink:href="#ap"/><use transform="matrix(0.009765625,0,0,0.009765625,24.23828125,0)" xlink:href="#au"/><use transform="matrix(0.009765625,0,0,0.009765625,41.7578125,0)" xlink:href="#ad"/><use transform="matrix(0.009765625,0,0,0.009765625,52.98828125,0)" xlink:href="#ag"/><use transform="matrix(0.009765625,0,0,0.009765625,57.83203125,0)" xlink:href="#ah"/><use transform="matrix(0.009765625,0,0,0.009765625,69.6484375,0)" xlink:href="#ak"/><use transform="matrix(0.009765625,0,0,0.009765625,81.89453125,0)" xlink:href="#ap"/><use transform="matrix(0.009765625,0,0,0.009765625,93.5546875,0)" xlink:href="#aq"/></g><g id="D"><use transform="matrix(0.009765625,0,0,0.009765625,0,0)" xlink:href="#aB"/><use transform="matrix(0.009765625,0,0,0.009765625,12.6171875,0)" xlink:href="#aP"/><use transform="matrix(0.009765625,0,0,0.009765625,23.53515625,0)" xlink:href="#aQ"/><use transform="matrix(0.009765625,0,0,0.009765625,35.556640625,0)" xlink:href="#aQ"/></g><g id="E"><use transform="matrix(0.009765625,0,0,0.009765625,0,0)" xlink:href="#ay"/><use transform="matrix(0.009765625,0,0,0.009765625,14.43359375,0)" xlink:href="#ag"/><use transform="matrix(0.009765625,0,0,0.009765625,19.27734375,0)" xlink:href="#az"/><use transform="matrix(0.009765625,0,0,0.009765625,30.517578125,0)" xlink:href="#ag"/><use transform="matrix(0.009765625,0,0,0.009765625,35.361328125,0)" xlink:href="#ak"/><use transform="matrix(0.009765625,0,0,0.009765625,47.607421875,0)" xlink:href="#ap"/><use transform="matrix(0.009765625,0,0,0.009765625,59.267578125,0)" xlink:href="#ah"/><use transform="matrix(0.009765625,0,0,0.009765625,71.083984375,0)" xlink:href="#ak"/><use transform="matrix(0.009765625,0,0,0.009765625,83.330078125,0)" xlink:href="#aC"/></g><path d="M653-1490V0H466v-1314h-10L96-1047v-204l324-239h233" id="aR"/><g id="F"><use transform="matrix(0.009765625,0,0,0.009765625,0,0)" xlink:href="#aB"/><use transform="matrix(0.009765625,0,0,0.009765625,12.6171875,0)" xlink:href="#aP"/><use transform="matrix(0.009765625,0,0,0.009765625,23.53515625,0)" xlink:href="#aB"/><use transform="matrix(0.009765625,0,0,0.009765625,36.15234375,0)" xlink:href="#aR"/></g><g id="G"><use transform="matrix(0.009765625,0,0,0.009765625,0,0)" xlink:href="#aB"/><use transform="matrix(0.009765625,0,0,0.009765625,12.6171875,0)" xlink:href="#aP"/><use transform="matrix(0.009765625,0,0,0.009765625,23.53515625,0)" xlink:href="#aB"/><use transform="matrix(0.009765625,0,0,0.009765625,36.15234375,0)" xlink:href="#aB"/></g><path d="M174-520v-126l944-476v196L406-588v12l712 338v194" id="aS"/><use transform="matrix(0.009765625,0,0,0.009765625,0,0)" xlink:href="#aS" id="H"/><path d="M180 0v-1490h901v168H370v510h643v168H370V0H180" id="aT"/><g id="I"><use transform="matrix(0.009765625,0,0,0.009765625,0,0)" xlink:href="#aB"/><use transform="matrix(0.009765625,0,0,0.009765625,12.6171875,0)" xlink:href="#aP"/><use transform="matrix(0.009765625,0,0,0.009765625,23.53515625,0)" xlink:href="#aT"/><use transform="matrix(0.009765625,0,0,0.009765625,35.341796875,0)" xlink:href="#aT"/></g><g id="J"><use transform="matrix(0.009765625,0,0,0.009765625,0,0)" xlink:href="#aB"/><use transform="matrix(0.009765625,0,0,0.009765625,12.6171875,0)" xlink:href="#aP"/><use transform="matrix(0.009765625,0,0,0.009765625,23.53515625,0)" xlink:href="#aT"/><use transform="matrix(0.009765625,0,0,0.009765625,35.341796875,0)" xlink:href="#aT"/></g><g id="K"><use transform="matrix(0.009765625,0,0,0.009765625,0,0)" xlink:href="#aI"/><use transform="matrix(0.009765625,0,0,0.009765625,5.37109375,0)" xlink:href="#ah"/><use transform="matrix(0.009765625,0,0,0.009765625,17.1875,0)" xlink:href="#am"/><use transform="matrix(0.009765625,0,0,0.009765625,28.61328125,0)" xlink:href="#aq"/><use transform="matrix(0.009765625,0,0,0.009765625,35.810546875,0)" xlink:href="#ap"/><use transform="matrix(0.009765625,0,0,0.009765625,47.470703125,0)" xlink:href="#au"/><use transform="matrix(0.009765625,0,0,0.009765625,64.990234375,0)" xlink:href="#ap"/><use transform="matrix(0.009765625,0,0,0.009765625,76.650390625,0)" xlink:href="#ah"/><use transform="matrix(0.009765625,0,0,0.009765625,88.466796875,0)" xlink:href="#ao"/></g><g id="L"><use transform="matrix(0.009765625,0,0,0.009765625,0,0)" xlink:href="#am"/><use transform="matrix(0.009765625,0,0,0.009765625,11.42578125,0)" xlink:href="#aj"/><use transform="matrix(0.009765625,0,0,0.009765625,23.41796875,0)" xlink:href="#an"/><use transform="matrix(0.009765625,0,0,0.009765625,35.244140625,0)" xlink:href="#ah"/><use transform="matrix(0.009765625,0,0,0.009765625,47.060546875,0)" xlink:href="#ao"/><use transform="matrix(0.009765625,0,0,0.009765625,53.408203125,0)" xlink:href="#ap"/><use transform="matrix(0.009765625,0,0,0.009765625,65.068359375,0)" xlink:href="#aq"/></g><path d="M677 24c-213 0-288-135-325-197h-20V0H158v-1490h180v551h14c37-59 106-193 324-193 279 0 474 222 474 576 0 356-194 580-473 580zm-27-161c209 0 317-186 317-421 0-232-105-413-317-413-206 0-314 166-314 413 0 249 111 421 314 421" id="aU"/><g id="M"><use transform="matrix(0.009765625,0,0,0.009765625,0,0)" xlink:href="#av"/><use transform="matrix(0.009765625,0,0,0.009765625,12.83203125,0)" xlink:href="#an"/><use transform="matrix(0.009765625,0,0,0.009765625,24.658203125,0)" xlink:href="#aU"/><use transform="matrix(0.009765625,0,0,0.009765625,36.904296875,0)" xlink:href="#ao"/><use transform="matrix(0.009765625,0,0,0.009765625,43.447265625,0)" xlink:href="#aq"/><use transform="matrix(0.009765625,0,0,0.009765625,50.9765625,0)" xlink:href="#ad"/><use transform="matrix(0.009765625,0,0,0.009765625,62.20703125,0)" xlink:href="#am"/><use transform="matrix(0.009765625,0,0,0.009765625,73.6328125,0)" xlink:href="#ao"/></g><g id="N"><use transform="matrix(0.009765625,0,0,0.009765625,0,0)" xlink:href="#aH"/><use transform="matrix(0.009765625,0,0,0.009765625,7.40234375,0)" xlink:href="#aq"/><use transform="matrix(0.009765625,0,0,0.009765625,14.599609375,0)" xlink:href="#aj"/><use transform="matrix(0.009765625,0,0,0.009765625,26.591796875,0)" xlink:href="#au"/></g><g id="O"><use transform="matrix(0.009765625,0,0,0.009765625,0,0)" xlink:href="#ak"/><use transform="matrix(0.009765625,0,0,0.009765625,12.24609375,0)" xlink:href="#ag"/><use transform="matrix(0.009765625,0,0,0.009765625,17.08984375,0)" xlink:href="#az"/><use transform="matrix(0.009765625,0,0,0.009765625,28.330078125,0)" xlink:href="#ag"/><use transform="matrix(0.009765625,0,0,0.009765625,33.173828125,0)" xlink:href="#ak"/><use transform="matrix(0.009765625,0,0,0.009765625,45.419921875,0)" xlink:href="#ap"/><use transform="matrix(0.009765625,0,0,0.009765625,57.080078125,0)" xlink:href="#ah"/><use transform="matrix(0.009765625,0,0,0.009765625,68.896484375,0)" xlink:href="#ak"/></g><g id="P"><use transform="matrix(0.009765625,0,0,0.009765625,0,0)" xlink:href="#aw"/><use transform="matrix(0.009765625,0,0,0.009765625,12.578125,0)" xlink:href="#ap"/><use transform="matrix(0.009765625,0,0,0.009765625,24.23828125,0)" xlink:href="#aG"/><use transform="matrix(0.009765625,0,0,0.009765625,34.794921875,0)" xlink:href="#an"/><use transform="matrix(0.009765625,0,0,0.009765625,46.62109375,0)" xlink:href="#ae"/><use transform="matrix(0.009765625,0,0,0.009765625,51.7578125,0)" xlink:href="#ao"/></g><g id="Q"><use transform="matrix(0.009765625,0,0,0.009765625,0,0)" xlink:href="#ay"/><use transform="matrix(0.009765625,0,0,0.009765625,14.43359375,0)" xlink:href="#ap"/><use transform="matrix(0.009765625,0,0,0.009765625,26.09375,0)" xlink:href="#am"/><use transform="matrix(0.009765625,0,0,0.009765625,37.51953125,0)" xlink:href="#aq"/><use transform="matrix(0.009765625,0,0,0.009765625,44.716796875,0)" xlink:href="#ap"/><use transform="matrix(0.009765625,0,0,0.009765625,56.376953125,0)" xlink:href="#au"/><use transform="matrix(0.009765625,0,0,0.009765625,73.896484375,0)" xlink:href="#ap"/><use transform="matrix(0.009765625,0,0,0.009765625,85.556640625,0)" xlink:href="#ah"/><use transform="matrix(0.009765625,0,0,0.009765625,97.373046875,0)" xlink:href="#ao"/></g><g id="R"><use transform="matrix(0.009765625,0,0,0.009765625,0,0)" xlink:href="#ax"/><use transform="matrix(0.009765625,0,0,0.009765625,13.798828125,0)" xlink:href="#ak"/><use transform="matrix(0.009765625,0,0,0.009765625,26.044921875,0)" xlink:href="#ak"/></g><g id="S"><use transform="matrix(0.009765625,0,0,0.009765625,0,0)" xlink:href="#aG"/><use transform="matrix(0.009765625,0,0,0.009765625,10.556640625,0)" xlink:href="#an"/><use transform="matrix(0.009765625,0,0,0.009765625,22.3828125,0)" xlink:href="#aU"/><use transform="matrix(0.009765625,0,0,0.009765625,34.62890625,0)" xlink:href="#ao"/><use transform="matrix(0.009765625,0,0,0.009765625,41.171875,0)" xlink:href="#aq"/><use transform="matrix(0.009765625,0,0,0.009765625,48.701171875,0)" xlink:href="#ad"/><use transform="matrix(0.009765625,0,0,0.009765625,59.931640625,0)" xlink:href="#am"/><use transform="matrix(0.009765625,0,0,0.009765625,71.357421875,0)" xlink:href="#ao"/><use transform="matrix(0.009765625,0,0,0.009765625,77.900390625,0)" xlink:href="#ag"/><use transform="matrix(0.009765625,0,0,0.009765625,82.744140625,0)" xlink:href="#aj"/><use transform="matrix(0.009765625,0,0,0.009765625,94.736328125,0)" xlink:href="#ah"/></g><g id="T"><use transform="matrix(0.009765625,0,0,0.009765625,0,0)" xlink:href="#aq"/><use transform="matrix(0.009765625,0,0,0.009765625,7.197265625,0)" xlink:href="#ap"/><use transform="matrix(0.009765625,0,0,0.009765625,18.857421875,0)" xlink:href="#aG"/><use transform="matrix(0.009765625,0,0,0.009765625,29.4140625,0)" xlink:href="#an"/><use transform="matrix(0.009765625,0,0,0.009765625,41.240234375,0)" xlink:href="#ae"/><use transform="matrix(0.009765625,0,0,0.009765625,46.376953125,0)" xlink:href="#ao"/></g><g id="U"><use transform="matrix(0.009765625,0,0,0.009765625,0,0)" xlink:href="#ao"/><use transform="matrix(0.009765625,0,0,0.009765625,6.34765625,0)" xlink:href="#aj"/></g><g id="V"><use transform="matrix(0.009765625,0,0,0.009765625,0,0)" xlink:href="#ak"/><use transform="matrix(0.009765625,0,0,0.009765625,12.24609375,0)" xlink:href="#ag"/><use transform="matrix(0.009765625,0,0,0.009765625,17.08984375,0)" xlink:href="#az"/><use transform="matrix(0.009765625,0,0,0.009765625,28.330078125,0)" xlink:href="#ag"/><use transform="matrix(0.009765625,0,0,0.009765625,33.173828125,0)" xlink:href="#aG"/><use transform="matrix(0.009765625,0,0,0.009765625,43.73046875,0)" xlink:href="#aj"/><use transform="matrix(0.009765625,0,0,0.009765625,55.72265625,0)" xlink:href="#aq"/><use transform="matrix(0.009765625,0,0,0.009765625,62.001953125,0)" xlink:href="#ar"/></g><g id="W"><use transform="matrix(0.009765625,0,0,0.009765625,0,0)" xlink:href="#aG"/><use transform="matrix(0.009765625,0,0,0.009765625,10.556640625,0)" xlink:href="#ao"/><use transform="matrix(0.009765625,0,0,0.009765625,16.904296875,0)" xlink:href="#aj"/><use transform="matrix(0.009765625,0,0,0.009765625,28.896484375,0)" xlink:href="#aq"/><use transform="matrix(0.009765625,0,0,0.009765625,36.09375,0)" xlink:href="#ap"/></g><g id="X"><use transform="matrix(0.009765625,0,0,0.009765625,0,0)" xlink:href="#ad"/><use transform="matrix(0.009765625,0,0,0.009765625,11.23046875,0)" xlink:href="#aG"/></g><g id="Y"><use transform="matrix(0.009765625,0,0,0.009765625,0,0)" xlink:href="#aq"/><use transform="matrix(0.009765625,0,0,0.009765625,7.197265625,0)" xlink:href="#ap"/><use transform="matrix(0.009765625,0,0,0.009765625,18.857421875,0)" xlink:href="#au"/><use transform="matrix(0.009765625,0,0,0.009765625,36.376953125,0)" xlink:href="#ad"/><use transform="matrix(0.009765625,0,0,0.009765625,47.607421875,0)" xlink:href="#ag"/><use transform="matrix(0.009765625,0,0,0.009765625,52.451171875,0)" xlink:href="#ah"/><use transform="matrix(0.009765625,0,0,0.009765625,64.267578125,0)" xlink:href="#ak"/><use transform="matrix(0.009765625,0,0,0.009765625,76.513671875,0)" xlink:href="#ap"/><use transform="matrix(0.009765625,0,0,0.009765625,88.173828125,0)" xlink:href="#aq"/></g><g id="Z"><use transform="matrix(0.009765625,0,0,0.009765625,0,0)" xlink:href="#av"/><use transform="matrix(0.009765625,0,0,0.009765625,12.83203125,0)" xlink:href="#ao"/><use transform="matrix(0.009765625,0,0,0.009765625,19.1796875,0)" xlink:href="#aj"/><use transform="matrix(0.009765625,0,0,0.009765625,31.171875,0)" xlink:href="#aq"/><use transform="matrix(0.009765625,0,0,0.009765625,38.369140625,0)" xlink:href="#ap"/></g><g id="aa"><use transform="matrix(0.009765625,0,0,0.009765625,0,0)" xlink:href="#am"/><use transform="matrix(0.009765625,0,0,0.009765625,11.42578125,0)" xlink:href="#aj"/><use transform="matrix(0.009765625,0,0,0.009765625,23.41796875,0)" xlink:href="#an"/><use transform="matrix(0.009765625,0,0,0.009765625,35.244140625,0)" xlink:href="#ah"/><use transform="matrix(0.009765625,0,0,0.009765625,47.060546875,0)" xlink:href="#ao"/><use transform="matrix(0.009765625,0,0,0.009765625,53.408203125,0)" xlink:href="#ap"/><use transform="matrix(0.009765625,0,0,0.009765625,65.068359375,0)" xlink:href="#aq"/></g><g id="ab"><use transform="matrix(0.009765625,0,0,0.009765625,0,0)" xlink:href="#at"/><use transform="matrix(0.009765625,0,0,0.009765625,12.24609375,0)" xlink:href="#an"/><use transform="matrix(0.009765625,0,0,0.009765625,24.072265625,0)" xlink:href="#aj"/><use transform="matrix(0.009765625,0,0,0.009765625,36.064453125,0)" xlink:href="#ao"/><use transform="matrix(0.009765625,0,0,0.009765625,42.607421875,0)" xlink:href="#ag"/><use transform="matrix(0.009765625,0,0,0.009765625,47.451171875,0)" xlink:href="#ap"/><use transform="matrix(0.009765625,0,0,0.009765625,59.111328125,0)" xlink:href="#ah"/><use transform="matrix(0.009765625,0,0,0.009765625,70.927734375,0)" xlink:href="#ao"/></g></defs></g></svg>