<svg xmlns="http://www.w3.org/2000/svg" xmlns:xlink="http://www.w3.org/1999/xlink" xmlns:lucid="lucid" width="1611" height="2343"><g transform="translate(990.5 -738.5)" lucid:page-tab-id="0_0"><path d="M50 870.97c16.57 0 30 13.43 30 30V2230c0 16.57-13.43 30-30 30h-525.3c-16.56 0-30-13.43-30-30V900.97c0-16.57 13.44-30 30-30z" fill-opacity="0"/><path d="M59.64 872.57l.18.04 3.42 1.52m6.48 4.36l2.5 2.32.3.4m4.3 6.54l.78 1.44.72 2.18m1.6 7.65l.08 1.97v2m0 7.97v4m0 7.98v4m0 7.97v3.98m0 7.98v4m0 7.98v4m0 7.97v4m0 7.98v4m0 7.98v4m0 7.97v4m0 7.97v4m0 7.98v4m0 7.97v4m0 7.97v4m0 7.98v4m0 7.97v4m0 7.97v4m0 7.98v4m0 7.97v3.98m0 7.98v4m0 7.98v4m0 7.97v4m0 7.98v4m0 7.98v4m0 7.97v4m0 7.97v4m0 7.98v4m0 7.97v4m0 7.97v4m0 7.98v4m0 7.97v4m0 7.97v4m0 7.98v4m0 7.97v3.98m0 7.98v4m0 7.98v4m0 7.97v4m0 7.98v4m0 7.97v4m0 7.98v4m0 7.97v4m0 7.97v4m0 7.98v4m0 7.97v4m0 7.98v4m0 7.97v4m0 7.97v4m0 7.97v4m0 8v3.98m0 7.98v4m0 7.97v4m0 7.98v4m0 7.98v4m0 7.98v4m0 7.97v4m0 7.97v4m0 7.97v4m0 7.98v4m0 7.97v4m0 7.97v3.98m0 8v3.98m0 7.98v4m0 7.97v4m0 8v3.98m0 7.98v4m0 7.97v4m0 7.98v4m0 7.98v4m0 7.97v4m0 7.98v4m0 7.97v4m0 7.97v4m0 7.98v4m0 7.97v4m0 7.97v3.98m0 8v3.98m0 7.98v4m0 7.97v4m0 8v3.98m0 7.98v4m0 7.97v4m0 7.98v4m0 7.98v4m0 7.97v4m0 7.98v4m0 7.97v4m0 7.97v4m0 7.98v4m0 7.97v4m0 7.97v3.98m0 8v3.98m0 7.98v4m0 7.97v4m0 8v3.98m0 7.98v4m0 7.97v4m0 7.98v4m0 7.98v4m0 7.97v4m0 7.97v4m0 7.98v4m0 7.97v4m0 7.97v4m0 7.98v4m0 7.97v3.98m0 8v3.98m0 7.98v4m0 7.97v4m0 8v3.98m0 7.98v4m0 7.97v4m0 7.97v2l-.16 1.95m-1.44 7.7l-.04.17-1.52 3.42m-4.35 6.48l-2.33 2.5-.42.3m-6.52 4.3l-1.44.78-2.2.72m-7.64 1.6L50 2260h-2m-7.95 0h-3.98m-7.96 0h-3.97m-7.96 0H12.2m-7.96 0H.26m-7.96 0h-3.98m-7.96 0h-3.98m-7.96 0h-3.98m-7.96 0h-3.98m-7.96 0h-3.98m-7.95 0h-3.97m-7.96 0h-3.98m-7.97 0h-3.98m-7.96 0h-4m-7.95 0h-3.98m-7.96 0h-3.97m-7.96 0H-143m-7.96 0h-3.98m-7.96 0h-3.98m-7.96 0h-3.98m-7.96 0h-3.98m-7.96 0h-3.98m-7.96 0h-3.98m-7.96 0h-3.97m-7.96 0h-3.98m-7.97 0h-3.98m-7.96 0h-4m-7.95 0h-3.98m-7.96 0h-3.97m-7.96 0h-3.97m-7.96 0h-3.98m-7.96 0h-3.98m-7.96 0h-3.98m-7.96 0h-3.98m-7.96 0h-3.98m-7.96 0h-3.98m-7.96 0h-3.97m-7.96 0h-3.98m-7.97 0h-3.98m-7.96 0h-4m-7.95 0h-3.98m-7.96 0h-3.97m-7.95 0h-3.98m-7.96 0h-3.98m-7.96 0h-2l-1.95-.16m-7.68-1.44l-.18-.04-3.43-1.52m-6.48-4.35l-2.5-2.33-.32-.4m-4.3-6.54l-.77-1.44-.7-2.2m-1.62-7.64l-.07-1.96v-2m0-7.98v-4m0-7.97v-4m0-7.97v-4m0-7.98v-4m0-7.97v-4m0-7.97v-4m0-7.98v-4m0-7.97v-3.98m0-7.98v-4m0-7.98v-4m0-7.97v-4m0-7.98v-4m0-7.98v-4m0-7.97v-4m0-7.97v-4m0-7.98v-4m0-7.97v-4m0-7.97v-4m0-7.98v-4m0-7.97v-4m0-7.97v-4m0-7.98v-4m0-7.97v-3.98m0-7.98v-4m0-7.98v-4m0-7.97v-4m0-7.98v-4m0-7.98v-4m0-7.97v-4m0-7.97v-4m0-7.98v-4m0-7.97v-4m0-7.97v-4m0-7.98v-4m0-7.97v-4m0-7.97v-4m0-7.98v-4m0-7.97v-3.98m0-7.98v-4m0-7.97v-4m0-7.98v-4m0-7.98v-4m0-7.97v-4m0-7.98v-4m0-7.97v-4m0-7.98v-4m0-7.97v-4m0-7.97v-4m0-7.97v-4m0-7.97v-4m0-7.97v-4m0-7.97v-4m0-8v-3.98m0-7.98v-4m0-7.98v-4m0-7.97v-4m0-7.98v-4m0-7.97v-4m0-7.98v-4m0-7.97v-4m0-7.97v-4m0-7.98v-4m0-7.97v-4m0-7.97v-4m0-7.97v-4m0-7.97v-4m0-7.97v-4m0-8v-3.98m0-7.98v-4m0-7.97v-4m0-7.98v-4m0-7.98v-4m0-7.97v-4m0-7.98v-4m0-7.97v-4m0-7.97v-4m0-7.98v-4m0-7.97v-4m0-7.97v-3.98m0-8v-3.98m0-7.98v-4m0-7.97v-4m0-8v-3.98m0-7.98v-4m0-7.97v-4m0-7.98v-4m0-7.98v-4m0-7.97v-4m0-7.98v-4m0-7.97v-4m0-7.97v-4m0-7.98v-4m0-7.97v-4m0-7.97v-3.98m0-8v-3.98m0-7.98v-4m0-7.97v-4m0-7.98v-4m0-7.98v-4m0-7.97v-4m0-7.98v-4m0-7.98v-4m0-7.97v-4m0-7.98v-4m0-7.97v-4m0-7.97v-4m0-7.98v-4m0-7.97v-4m0-7.97v-3.98m0-8v-3.98m0-7.98v-2l.17-1.95m1.44-7.68l.05-.17 1.52-3.42m4.35-6.48l2.32-2.5.4-.3m6.54-4.32l1.44-.76 2.18-.72m7.65-1.6l1.96-.08h2m7.96 0h3.98m7.96 0h3.97m7.96 0h3.98m7.97 0h3.98m7.96 0h4m7.95 0h3.98m7.96 0h3.97m7.96 0h3.97m7.96 0h3.98m7.96 0h3.98m7.96 0h3.98m7.96 0h3.98m7.96 0h3.98m7.96 0h3.98m7.96 0h3.97m7.96 0h3.98m7.97 0h3.98m7.96 0h4m7.95 0h3.98m7.96 0h3.97m7.96 0h3.97m7.96 0h3.98m7.96 0h3.98m7.96 0h3.98m7.96 0h3.98m7.96 0h3.98m7.96 0h3.98m7.96 0h3.97m7.96 0h3.98m7.97 0h3.98m7.96 0h4m7.95 0h3.98m7.96 0h3.97m7.96 0h3.98m7.96 0h3.98m7.96 0h3.98m7.96 0h3.98m7.96 0h3.98m7.96 0h3.98m7.96 0h3.98m7.96 0h3.97m7.96 0h3.98m7.97 0h3.98m7.96 0h2l1.95.16" stroke="#3a414a" stroke-width="2" fill="none"/><path d="M-660 740c22.1 0 40 17.9 40 40s-17.9 40-40 40h-80c-22.1 0-40-17.9-40-40s17.9-40 40-40z" stroke="#000" stroke-width="3" fill-opacity="0"/><use xlink:href="#a" transform="matrix(1,0,0,1,-775,745) translate(5.537109375 41.25)"/><use xlink:href="#b" transform="matrix(1,0,0,1,-775,745) translate(55.1171875 41.25)"/><use xlink:href="#c" transform="matrix(1,0,0,1,-775,745) translate(99.375 41.25)"/><path d="M-700 822.5v60.66" stroke="#000" stroke-width="2" fill="none"/><path d="M-699.02 822.53H-701v-1.03h1.96z" stroke="#000" stroke-width=".05"/><path d="M-700 898.42l-4.63-14.26h9.26z" stroke="#000" stroke-width="2"/><path d="M-705.38 904.42a12.14 12.14 0 0 1 10.76 0l109.24 54a2.96 2.96 0 0 1 0 5.3l-109.24 54a12.14 12.14 0 0 1-10.76 0l-109.24-54a2.96 2.96 0 0 1 0-5.3z" stroke="#000" stroke-width="3" fill-opacity="0"/><use xlink:href="#d" transform="matrix(1,0,0,1,-815,906.757857663847) translate(51.7774609375 50.03125)"/><use xlink:href="#e" transform="matrix(1,0,0,1,-815,906.757857663847) translate(98.7110546875 50.03125)"/><use xlink:href="#f" transform="matrix(1,0,0,1,-815,906.757857663847) translate(130.6739453125 50.03125)"/><use xlink:href="#g" transform="matrix(1,0,0,1,-815,906.757857663847) translate(53.6524609375 74.23046875)"/><use xlink:href="#h" transform="matrix(1,0,0,1,-815,906.757857663847) translate(118.5255078125 74.23046875)"/><path d="M-857.3 955.05l.06.88.2.85.34.8.45.74.56.65.67.57.74.45.8.32.85.2.9.08h33.47v.94h-33.52l-1-.07-.98-.24-.94-.4-.87-.52-.76-.65-.66-.77-.53-.87-.4-.93-.23-1-.08-.98v-40.74h.95zm152.3-93.8l1 .25.94.4.87.52.78.66.66.77.53.87.4.94.23 1 .08.98v17.63h-.96v-17.6l-.06-.88-.2-.85-.34-.8-.45-.74-.56-.65-.65-.56-.74-.46-.8-.34-.84-.2-.88-.07h-145.74l-.9.07-.83.2-.8.34-.73.45-.66.55-.55.66-.45.75-.33.8-.2.84-.08.88v30.54h-.96v-30.58l.08-1 .24-.98.4-.94.52-.87.66-.77.77-.66.88-.53.94-.4 1-.24.98-.08h145.82z" stroke="#000" stroke-width=".05"/><path d="M-817.78 961.07l.05.47h-.56v-.94h.57z"/><path stroke="#000" stroke-width=".05"/><path d="M-700 900.04l-4.63-14.27h9.26z"/><path d="M-700 901.58l-5.3-16.28h10.6zm-3.98-15.33l3.98 12.25 3.98-12.25z" stroke="#000" stroke-width=".05"/><use xlink:href="#i" transform="matrix(1,0,0,1,-922.7819605072804,898.2240389520744) translate(0 12.916666666666668)"/><use xlink:href="#j" transform="matrix(1,0,0,1,-922.7819605072804,898.2240389520744) translate(43.58072916666667 12.916666666666668)"/><use xlink:href="#k" transform="matrix(1,0,0,1,-922.7819605072804,898.2240389520744) translate(69.9609375 12.916666666666668)"/><path d="M-700 1020.98v86.46" stroke="#000" fill="none"/><path d="M-700 1020.48l.48-.02v.53h-.96v-.54z" stroke="#000" stroke-width=".05"/><path d="M-700 1122.2l-4.63-14.26h9.26z" stroke="#000"/><path d="M-700 1189.5v57.5" stroke="#000" fill="none"/><path d="M-699.52 1189.5h-.96v-.5h.96z" stroke="#000" stroke-width=".05"/><path d="M-700 1261.76l-4.63-14.27h9.26z" stroke="#000"/><path d="M-705.38 1266.13a12.14 12.14 0 0 1 10.76 0l109.24 54a2.96 2.96 0 0 1 0 5.3l-109.24 54a12.14 12.14 0 0 1-10.76 0l-109.24-54a2.96 2.96 0 0 1 0-5.3z" stroke="#000" stroke-width="3" fill-opacity="0"/><use xlink:href="#d" transform="matrix(1,0,0,1,-815,1268.473610393101) translate(28.383906250000006 60.25)"/><use xlink:href="#e" transform="matrix(1,0,0,1,-815,1268.473610393101) translate(75.31750000000001 60.25)"/><use xlink:href="#l" transform="matrix(1,0,0,1,-815,1268.473610393101) translate(107.28039062500001 60.25)"/><use xlink:href="#m" transform="matrix(1,0,0,1,-815,1268.473610393101) translate(160.463984375 60.25)"/><path d="M-561.6 961.07h188.7" stroke="#000" stroke-width="3" fill="none"/><path d="M-577.36 961.07l14.26-4.64v9.28z" stroke="#000" stroke-width="3" fill="#fff"/><path d="M-371.8 962.54h-1.14v-2.94h1.93z" stroke="#000" stroke-width=".05"/><path d="M-366.48 948.42a7.8 7.8 0 0 1 7.55-5.8h277.4a4.6 4.6 0 0 1 4.46 5.8l-6.75 25.3a7.8 7.8 0 0 1-7.54 5.8h-277.4a4.6 4.6 0 0 1-4.47-5.8z" stroke="#000" stroke-width="3" fill-opacity="0"/><use xlink:href="#n" transform="matrix(1,0,0,1,-369.7710096980626,947.6265179675025) translate(88.28917968750001 21.0625)"/><use xlink:href="#o" transform="matrix(1,0,0,1,-369.7710096980626,947.6265179675025) translate(141.4727734375 21.0625)"/><path d="M-700 1021.98v33.27a6 6 0 0 0 6 6h301.98" stroke="#000" stroke-width="3" fill="none"/><path d="M-701.25 1020.42l1.25.06 1.25-.06.23-.03v1.62h-2.96v-1.63z" stroke="#000" stroke-width=".05"/><path d="M-376.26 1061.25l-14.26 4.63v-9.27z" stroke="#000" stroke-width="3" fill="#fff"/><path d="M-366.48 1048.6a7.8 7.8 0 0 1 7.55-5.8h277.4a4.6 4.6 0 0 1 4.46 5.8l-6.75 25.3a7.8 7.8 0 0 1-7.54 5.8h-277.4a4.6 4.6 0 0 1-4.47-5.8z" stroke="#000" stroke-width="3" fill-opacity="0"/><use xlink:href="#p" transform="matrix(1,0,0,1,-369.7710096980626,1047.8069140226119) translate(66.15539062500001 21.0625)"/><use xlink:href="#q" transform="matrix(1,0,0,1,-369.7710096980626,1047.8069140226119) translate(120.335078125 21.0625)"/><use xlink:href="#r" transform="matrix(1,0,0,1,-369.7710096980626,1047.8069140226119) translate(166.0675 21.0625)"/><path d="M-857.3 1316.77l.06.88.2.84.34.8.45.73.56.66.67.55.74.46.8.34.85.2.9.07h33.47v.96h-33.52l-1-.08-.98-.24-.94-.38-.87-.53-.76-.66-.66-.78-.53-.87-.4-.94-.23-1-.08-1v-40.73h.95zm152.3-93.8l1 .24.94.4.87.53.78.66.66.77.53.86.4.94.23 1 .08 1v17.62h-.96v-17.6l-.06-.9-.2-.83-.34-.8-.45-.74-.56-.66-.65-.57-.74-.45-.8-.33-.84-.2-.88-.07h-145.74l-.9.07-.83.2-.8.33-.73.45-.66.57-.55.66-.45.74-.33.8-.2.84-.08.9v30.54h-.96v-30.6l.08-.98.24-1 .4-.93.52-.86.66-.78.77-.67.88-.53.94-.4 1-.22.98-.08h145.82z" stroke="#000" stroke-width=".05"/><path d="M-817.78 1322.8l.05.46h-.56v-.95h.57z"/><path stroke="#000" stroke-width=".05"/><path d="M-700 1261.76l-4.63-14.27h9.26z"/><path d="M-700 1263.3l-5.3-16.28h10.6zm-3.98-15.34l3.98 12.26 3.98-12.26z" stroke="#000" stroke-width=".05"/><use xlink:href="#s" transform="matrix(1,0,0,1,-916.9942000906137,1259.9397916813284) translate(0 12.916666666666668)"/><use xlink:href="#j" transform="matrix(1,0,0,1,-916.9942000906137,1259.9397916813284) translate(32.005208333333336 12.916666666666668)"/><use xlink:href="#k" transform="matrix(1,0,0,1,-916.9942000906137,1259.9397916813284) translate(58.38541666666667 12.916666666666668)"/><path d="M-561.6 1322.8h188.7" stroke="#000" stroke-width="3" fill="none"/><path d="M-577.36 1322.8l14.26-4.65v9.27z" stroke="#000" stroke-width="3" fill="#fff"/><path d="M-371.8 1324.26h-1.14v-2.95h1.93z" stroke="#000" stroke-width=".05"/><path d="M-366.48 1310.14a7.8 7.8 0 0 1 7.55-5.8h277.4a4.6 4.6 0 0 1 4.46 5.8l-6.75 25.3a7.8 7.8 0 0 1-7.54 5.8h-277.4a4.6 4.6 0 0 1-4.47-5.8z" stroke="#000" stroke-width="3" fill-opacity="0"/><use xlink:href="#n" transform="matrix(1,0,0,1,-369.7710096980626,1309.3422706967565) translate(97.33214843750001 21.0625)"/><use xlink:href="#m" transform="matrix(1,0,0,1,-369.7710096980626,1309.3422706967565) translate(150.5157421875 21.0625)"/><path d="M-700 1382.7v113.2" stroke="#000" fill="none"/><path d="M-700 1382.2l.48-.03v.54h-.96v-.53z" stroke="#000" stroke-width=".05"/><path d="M-700 1510.68l-4.63-14.27h9.26z" stroke="#000"/><path d="M-705.38 1515.06a12.14 12.14 0 0 1 10.76 0l109.24 54a2.96 2.96 0 0 1 0 5.3l-109.24 54a12.14 12.14 0 0 1-10.76 0l-109.24-54a2.96 2.96 0 0 1 0-5.3z" stroke="#000" stroke-width="3" fill-opacity="0"/><use xlink:href="#d" transform="matrix(1,0,0,1,-815,1517.399053029963) translate(28.383906250000006 60.25)"/><use xlink:href="#e" transform="matrix(1,0,0,1,-815,1517.399053029963) translate(75.31750000000001 60.25)"/><use xlink:href="#l" transform="matrix(1,0,0,1,-815,1517.399053029963) translate(107.28039062500001 60.25)"/><use xlink:href="#m" transform="matrix(1,0,0,1,-815,1517.399053029963) translate(160.463984375 60.25)"/><path d="M-857.3 1565.7l.06.88.2.84.34.8.45.74.56.66.67.56.74.45.8.33.85.2.9.08h33.47v.95h-33.52l-1-.1-.98-.23-.94-.4-.87-.52-.76-.66-.66-.78-.53-.87-.4-.94-.23-.98-.08-1V1525h.95zm152.3-93.8l1 .24.94.4.87.52.78.66.66.77.53.86.4.94.23 1 .08.98v17.63h-.96v-17.58l-.06-.88-.2-.85-.34-.8-.45-.75-.56-.66-.65-.57-.74-.45-.8-.33-.84-.2-.88-.08h-145.74l-.9.07-.83.2-.8.34-.73.45-.66.56-.55.65-.45.74-.33.8-.2.84-.08.88v30.55h-.96v-30.6l.08-.98.24-1 .4-.94.52-.87.66-.78.77-.66.88-.53.94-.4 1-.23.98-.08h145.82z" stroke="#000" stroke-width=".05"/><path d="M-817.78 1571.7l.05.5h-.56v-.96h.57z"/><path stroke="#000" stroke-width=".05"/><path d="M-700 1510.68l-4.63-14.27h9.26z"/><path d="M-700 1512.22l-5.3-16.28h10.6zm-3.98-15.33l3.98 12.24 3.98-12.25z" stroke="#000" stroke-width=".05"/><use xlink:href="#s" transform="matrix(1,0,0,1,-916.9942000906137,1508.8652343181905) translate(0 12.916666666666668)"/><use xlink:href="#j" transform="matrix(1,0,0,1,-916.9942000906137,1508.8652343181905) translate(32.005208333333336 12.916666666666668)"/><use xlink:href="#k" transform="matrix(1,0,0,1,-916.9942000906137,1508.8652343181905) translate(58.38541666666667 12.916666666666668)"/><path d="M-561.6 1571.7h188.7" stroke="#000" stroke-width="3" fill="none"/><path d="M-577.36 1571.7l14.26-4.62v9.27z" stroke="#000" stroke-width="3" fill="#fff"/><path d="M-371.8 1573.2h-1.14v-2.96h1.93z" stroke="#000" stroke-width=".05"/><path d="M-366.48 1559.07a7.8 7.8 0 0 1 7.55-5.8h277.4a4.6 4.6 0 0 1 4.46 5.8l-6.75 25.3a7.8 7.8 0 0 1-7.54 5.78h-277.4a4.6 4.6 0 0 1-4.47-5.8z" stroke="#000" stroke-width="3" fill-opacity="0"/><use xlink:href="#n" transform="matrix(1,0,0,1,-369.7710096980626,1558.2677133336185) translate(97.33214843750001 21.0625)"/><use xlink:href="#m" transform="matrix(1,0,0,1,-369.7710096980626,1558.2677133336185) translate(150.5157421875 21.0625)"/><path d="M-700 1383.7v36.65a6 6 0 0 0 6 6h302.75" stroke="#000" stroke-width="3" fill="none"/><path d="M-701.25 1382.14l1.25.06 1.25-.06.23-.03v1.63h-2.96v-1.62z" stroke="#000" stroke-width=".05"/><path d="M-375.5 1426.35l-14.25 4.63v-9.27z" stroke="#000" stroke-width="3" fill="#fff"/><path d="M-364.86 1410.5a7.8 7.8 0 0 1 7.55-5.8h275.77a4.6 4.6 0 0 1 4.46 5.8l-8.45 31.68a7.8 7.8 0 0 1-7.54 5.8h-275.8a4.6 4.6 0 0 1-4.45-5.8z" stroke="#000" stroke-width="3" fill-opacity="0"/><use xlink:href="#p" transform="matrix(1,0,0,1,-369.85197197720794,1409.7143528543675) translate(42.395625 23.625)"/><use xlink:href="#t" transform="matrix(1,0,0,1,-369.85197197720794,1409.7143528543675) translate(96.5753125 23.625)"/><use xlink:href="#u" transform="matrix(1,0,0,1,-369.85197197720794,1409.7143528543675) translate(174.495234375 23.625)"/><use xlink:href="#v" transform="matrix(1,0,0,1,-369.85197197720794,1409.7143528543675) translate(220.208125 23.625)"/><path d="M-700 1631.62v113.7" stroke="#000" fill="none"/><path d="M-700 1631.12l.48-.02v.54h-.96v-.54z" stroke="#000" stroke-width=".05"/><path d="M-700 1760.07l-4.63-14.26h9.26z" stroke="#000"/><path d="M-705.38 1764.45a12.14 12.14 0 0 1 10.76 0l109.24 54a2.96 2.96 0 0 1 0 5.3l-109.24 54a12.14 12.14 0 0 1-10.76 0l-109.24-54a2.96 2.96 0 0 1 0-5.3z" stroke="#000" stroke-width="3" fill-opacity="0"/><use xlink:href="#d" transform="matrix(1,0,0,1,-815,1766.7902028699427) translate(30.146601562500006 60.25)"/><use xlink:href="#e" transform="matrix(1,0,0,1,-815,1766.7902028699427) translate(77.08019531250001 60.25)"/><use xlink:href="#q" transform="matrix(1,0,0,1,-815,1766.7902028699427) translate(109.04308593750001 60.25)"/><use xlink:href="#w" transform="matrix(1,0,0,1,-815,1766.7902028699427) translate(154.7755078125 60.25)"/><path d="M-857.3 1815.08l.06.9.2.83.34.8.45.75.56.66.67.57.74.45.8.34.85.2.9.07h33.47v.95h-33.52l-1-.08-.98-.24-.94-.4-.87-.52-.76-.66-.66-.77-.53-.86-.4-.94-.23-.98-.08-1v-40.73h.95zm152.3-93.8l1 .25.94.4.87.52.78.66.66.78.53.87.4.94.23.98.08 1v17.63h-.96v-17.6l-.06-.87-.2-.85-.34-.8-.45-.74-.56-.65-.65-.58-.74-.45-.8-.33-.84-.2-.88-.08h-145.74l-.9.07-.83.2-.8.34-.73.45-.66.57-.55.64-.45.74-.33.8-.2.85-.08.88v30.56h-.96v-30.6l.08-.98.24-1 .4-.93.52-.87.66-.77.77-.65.88-.53.94-.4 1-.23.98-.1h145.82z" stroke="#000" stroke-width=".05"/><path d="M-817.78 1821.1l.05.48h-.56v-.95h.57z"/><path stroke="#000" stroke-width=".05"/><path d="M-700 1760.07l-4.63-14.26h9.26z"/><path d="M-700 1761.6l-5.3-16.27h10.6zm-3.98-15.32l3.98 12.26 3.98-12.26z" stroke="#000" stroke-width=".05"/><use xlink:href="#x" transform="matrix(1,0,0,1,-934.2207625906137,1758.2563841581702) translate(0 12.916666666666668)"/><use xlink:href="#y" transform="matrix(1,0,0,1,-934.2207625906137,1758.2563841581702) translate(31.30859375 12.916666666666668)"/><use xlink:href="#z" transform="matrix(1,0,0,1,-934.2207625906137,1758.2563841581702) translate(66.45833333333334 12.916666666666668)"/><use xlink:href="#k" transform="matrix(1,0,0,1,-934.2207625906137,1758.2563841581702) translate(92.83854166666667 12.916666666666668)"/><path d="M-561.6 1821.1h188.7" stroke="#000" stroke-width="3" fill="none"/><path d="M-577.36 1821.1l14.26-4.63v9.27z" stroke="#000" stroke-width="3" fill="#fff"/><path d="M-371.8 1822.58h-1.14v-2.95h1.93z" stroke="#000" stroke-width=".05"/><path d="M-366.48 1808.46a7.8 7.8 0 0 1 7.55-5.8h277.4a4.6 4.6 0 0 1 4.46 5.8l-6.75 25.3a7.8 7.8 0 0 1-7.54 5.8h-277.4a4.6 4.6 0 0 1-4.47-5.8z" stroke="#000" stroke-width="3" fill-opacity="0"/><use xlink:href="#A" transform="matrix(1,0,0,1,-369.7710096980626,1807.6588631735983) translate(99.09484375000001 21.0625)"/><use xlink:href="#w" transform="matrix(1,0,0,1,-369.7710096980626,1807.6588631735983) translate(144.827265625 21.0625)"/><path d="M-700 1632.62v65.94a6 6 0 0 0 6 6h301.9" stroke="#000" stroke-width="3" fill="none"/><path d="M-701.25 1631.07l1.25.05 1.25-.05.23-.04v1.63h-2.96v-1.63z" stroke="#000" stroke-width=".05"/><path d="M-376.34 1704.56l-14.27 4.64v-9.27z" stroke="#000" stroke-width="3" fill="#fff"/><path d="M-366.56 1691.92a7.8 7.8 0 0 1 7.54-5.8h277.4a4.6 4.6 0 0 1 4.47 5.8l-6.75 25.3a7.8 7.8 0 0 1-7.54 5.8h-277.4a4.6 4.6 0 0 1-4.47-5.8z" stroke="#000" stroke-width="3" fill-opacity="0"/><use xlink:href="#p" transform="matrix(1,0,0,1,-369.8519719772079,1691.1213937004404) translate(81.26769531250001 21.0625)"/><use xlink:href="#B" transform="matrix(1,0,0,1,-369.8519719772079,1691.1213937004404) translate(135.4473828125 21.0625)"/><path d="M-700 1881v42.83" stroke="#000" fill="none"/><path d="M-700 1880.5h.48v.53h-.96v-.54z" stroke="#000" stroke-width=".05"/><path d="M-700 1938.6l-4.63-14.27h9.26z" stroke="#000"/><path d="M-820 1947.7a6 6 0 0 1 6-6h228a6 6 0 0 1 6 6v34.48a6 6 0 0 1-6 6h-228a6 6 0 0 1-6-6z" stroke="#000" stroke-width="3" fill-opacity="0"/><use xlink:href="#C" transform="matrix(1,0,0,1,-815,1946.7105764233256) translate(39.5458984375 26.3125)"/><use xlink:href="#q" transform="matrix(1,0,0,1,-815,1946.7105764233256) translate(90.2587890625 26.3125)"/><use xlink:href="#D" transform="matrix(1,0,0,1,-815,1946.7105764233256) translate(135.9912109375 26.3125)"/><path d="M-700 1990.18v110.53" stroke="#000" fill="none"/><path d="M-699.52 1990.2h-.96v-.52h.96z" stroke="#000" stroke-width=".05"/><path d="M-700 2115.48l-4.63-14.27h9.26z" stroke="#000"/><path d="M-705.38 2119.85a12.14 12.14 0 0 1 10.76 0l109.24 54a2.96 2.96 0 0 1 0 5.32l-109.24 54a12.14 12.14 0 0 1-10.76 0l-109.24-54a2.96 2.96 0 0 1 0-5.32z" stroke="#000" stroke-width="3" fill-opacity="0"/><use xlink:href="#d" transform="matrix(1,0,0,1,-815,2122.194910175547) translate(78.3692578125 46.625)"/><use xlink:href="#E" transform="matrix(1,0,0,1,-815,2122.194910175547) translate(125.3028515625 46.625)"/><use xlink:href="#F" transform="matrix(1,0,0,1,-815,2122.194910175547) translate(38.3253125 70.82421875)"/><use xlink:href="#G" transform="matrix(1,0,0,1,-815,2122.194910175547) translate(112.085078125 70.82421875)"/><path d="M-857.3 2170.5l.06.87.2.84.34.8.45.75.56.66.67.57.74.46.8.33.85.2.9.07h33.47v.95h-33.52l-1-.08-.98-.23-.94-.4-.87-.52-.76-.66-.66-.8-.53-.85-.4-.94-.23-.98-.08-1v-40.73h.95zm152.3-93.8l1 .24.94.38.87.54.78.66.66.77.53.86.4.93.23.98.08 1v17.63h-.96v-17.6l-.06-.87-.2-.84-.34-.8-.45-.75-.56-.66-.65-.57-.74-.46-.8-.33-.84-.2-.88-.07h-145.74l-.9.07-.83.2-.8.33-.73.46-.66.56-.55.65-.45.74-.33.8-.2.83-.08.88v30.56h-.96v-30.58l.08-1 .24-1 .4-.92.52-.87.66-.78.77-.66.88-.54.94-.38 1-.24.98-.08h145.82z" stroke="#000" stroke-width=".05"/><path d="M-817.78 2176.5l.05.48h-.56v-.95h.57z"/><path stroke="#000" stroke-width=".05"/><path d="M-700 2115.48l-4.63-14.27h9.26z"/><path d="M-700 2117l-5.3-16.26h10.6zm-3.98-15.3l3.98 12.24 3.98-12.25z" stroke="#000" stroke-width=".05"/><use xlink:href="#x" transform="matrix(1,0,0,1,-945.9590438406137,2113.6610914637745) translate(0 12.916666666666668)"/><use xlink:href="#H" transform="matrix(1,0,0,1,-945.9590438406137,2113.6610914637745) translate(31.30859375 12.916666666666668)"/><use xlink:href="#z" transform="matrix(1,0,0,1,-945.9590438406137,2113.6610914637745) translate(89.93489583333334 12.916666666666668)"/><use xlink:href="#k" transform="matrix(1,0,0,1,-945.9590438406137,2113.6610914637745) translate(116.31510416666667 12.916666666666668)"/><path d="M-561.6 2176.5h189.45" stroke="#000" stroke-width="3" fill="none"/><path d="M-577.36 2176.5l14.26-4.63v9.27z" stroke="#000" stroke-width="3" fill="#fff"/><path d="M-371.04 2177.98h-1.15v-2.95h1.94z" stroke="#000" stroke-width=".05"/><path d="M-365.73 2163.86a7.8 7.8 0 0 1 7.55-5.8h277.4a4.6 4.6 0 0 1 4.46 5.8l-6.74 25.3a7.8 7.8 0 0 1-7.55 5.8h-277.42a4.6 4.6 0 0 1-4.45-5.8z" stroke="#000" stroke-width="3" fill-opacity="0"/><use xlink:href="#I" transform="matrix(1,0,0,1,-369.0169730486033,2163.063570479203) translate(67.82531250000001 21.0625)"/><use xlink:href="#G" transform="matrix(1,0,0,1,-369.0169730486033,2163.063570479203) translate(141.585078125 21.0625)"/><path d="M-700 2236.42v41.06" stroke="#000" fill="none"/><path d="M-700 2235.92l.48-.02v.53h-.96v-.53z" stroke="#000" stroke-width=".05"/><path d="M-700 2292.24l-4.63-14.26h9.26z" stroke="#000"/><path d="M-700 2343.83v41.06" stroke="#000" fill="none"/><path d="M-699.52 2343.84h-.96v-.5h.96z" stroke="#000" stroke-width=".05"/><path d="M-700 2399.66l-4.63-14.27h9.26z" stroke="#000"/><path d="M-705.38 2404.03a12.14 12.14 0 0 1 10.76 0l109.24 54a2.96 2.96 0 0 1 0 5.32l-109.24 54a12.14 12.14 0 0 1-10.76 0l-109.24-54a2.96 2.96 0 0 1 0-5.32z" stroke="#000" stroke-width="3" fill-opacity="0"/><use xlink:href="#J" transform="matrix(1,0,0,1,-815,2406.3765284970923) translate(49.145625 50.03125)"/><use xlink:href="#K" transform="matrix(1,0,0,1,-815,2406.3765284970923) translate(70.698359375 50.03125)"/><use xlink:href="#q" transform="matrix(1,0,0,1,-815,2406.3765284970923) translate(115.737421875 50.03125)"/><use xlink:href="#L" transform="matrix(1,0,0,1,-815,2406.3765284970923) translate(161.46984375 50.03125)"/><use xlink:href="#u" transform="matrix(1,0,0,1,-815,2406.3765284970923) translate(81.128046875 74.23046875)"/><use xlink:href="#M" transform="matrix(1,0,0,1,-815,2406.3765284970923) translate(126.8409375 74.23046875)"/><path d="M-820 2301.36a6 6 0 0 1 6-6h228a6 6 0 0 1 6 6v34.47a6 6 0 0 1-6 6h-228a6 6 0 0 1-6-6z" stroke="#000" stroke-width="3" fill-opacity="0"/><use xlink:href="#N" transform="matrix(1,0,0,1,-815,2300.3629710314676) translate(40.380859375 26.3125)"/><use xlink:href="#q" transform="matrix(1,0,0,1,-815,2300.3629710314676) translate(89.423828125 26.3125)"/><use xlink:href="#D" transform="matrix(1,0,0,1,-815,2300.3629710314676) translate(135.15625 26.3125)"/><path d="M-820 1131.32a6 6 0 0 1 6-6h228a6 6 0 0 1 6 6v50.17a6 6 0 0 1-6 6h-228a6 6 0 0 1-6-6z" stroke="#000" stroke-width="3" fill-opacity="0"/><use xlink:href="#O" transform="matrix(1,0,0,1,-815,1130.324492561085) translate(29.9853515625 22.6875)"/><use xlink:href="#P" transform="matrix(1,0,0,1,-815,1130.324492561085) translate(122.4365234375 22.6875)"/><use xlink:href="#t" transform="matrix(1,0,0,1,-815,1130.324492561085) translate(34.765625 46.88671875)"/><use xlink:href="#Q" transform="matrix(1,0,0,1,-815,1130.324492561085) translate(112.685546875 46.88671875)"/><use xlink:href="#u" transform="matrix(1,0,0,1,-815,1130.324492561085) translate(137.705078125 46.88671875)"/><use xlink:href="#R" transform="matrix(1,0,0,1,-815,1130.324492561085) translate(183.41796875 46.88671875)"/><path d="M-837.88 1156.88h-146.1l-.88.07-.85.2-.8.33-.75.46-.66.56-.57.66-.45.74-.33.8-.2.84-.07.88v1292.25l.06.88.2.84.34.8.45.74.56.65.65.56.74.45.8.34.84.2.88.07h57.77v.96h-57.82l-1-.07-.98-.25-.94-.4-.87-.52-.78-.66-.66-.78-.53-.87-.4-.94-.23-1-.08-1V1162.4l.08-1 .24-1 .4-.93.52-.87.66-.77.77-.66.86-.53.94-.4 1-.23.98-.07h146.14zm19.6 1303.33v.96h-83.48v-.95z" stroke="#000" stroke-width=".05"/><path d="M-817.78 2460.7l.05.46h-.56v-.95h.57z"/><path stroke="#000" stroke-width=".05"/><path d="M-823.12 1156.4l-14.26 4.64v-9.27z"/><path d="M-821.58 1156.4l-16.28 5.3v-10.58zm-15.33 4l12.25-4-12.26-3.98z" stroke="#000" stroke-width=".05"/><use xlink:href="#S" transform="matrix(1,0,0,1,-926.2089063390752,2449.9330558156394) translate(0 17.22222222222222)"/><path d="M-699.52 2583.43h-.96v-22.75h.96zm0-44.26h-.96v-18.57h.96z" stroke="#000" stroke-width=".05"/><path d="M-700 2520.1l.48-.02v.53h-.96v-.52z"/><path stroke="#000" stroke-width=".05"/><path d="M-700 2598.2l-4.63-14.27h9.26z"/><path d="M-700 2599.73l-5.3-16.28h10.6zm-3.98-15.33l3.98 12.26 3.98-12.26z" stroke="#000" stroke-width=".05"/><use xlink:href="#T" transform="matrix(1,0,0,1,-715.7986111111111,2539.167053941154) translate(0 17.22222222222222)"/><path d="M-820 2607.3a6 6 0 0 1 6-6h228a6 6 0 0 1 6 6v78.17a6 6 0 0 1-6 6h-228a6 6 0 0 1-6-6z" stroke="#000" stroke-width="3" fill-opacity="0"/><use xlink:href="#U" transform="matrix(1,0,0,1,-815,2606.3114071332293) translate(4.8291015625 34.5625)"/><use xlink:href="#V" transform="matrix(1,0,0,1,-815,2606.3114071332293) translate(60.4833984375 34.5625)"/><use xlink:href="#Q" transform="matrix(1,0,0,1,-815,2606.3114071332293) translate(143.7451171875 34.5625)"/><use xlink:href="#W" transform="matrix(1,0,0,1,-815,2606.3114071332293) translate(168.7646484375 34.5625)"/><use xlink:href="#X" transform="matrix(1,0,0,1,-815,2606.3114071332293) translate(204.4189453125 34.5625)"/><use xlink:href="#Y" transform="matrix(1,0,0,1,-815,2606.3114071332293) translate(58.818359375 58.76171875)"/><use xlink:href="#Z" transform="matrix(1,0,0,1,-815,2606.3114071332293) translate(109.912109375 58.76171875)"/><use xlink:href="#aa" transform="matrix(1,0,0,1,-815,2606.3114071332293) translate(132.197265625 58.76171875)"/><path d="M-820 3036.03a6 6 0 0 1 6-6h228a6 6 0 0 1 6 6V3074a6 6 0 0 1-6 6h-228a6 6 0 0 1-6-6z" stroke="#000" stroke-width="3" fill-opacity="0"/><use xlink:href="#ab" transform="matrix(1,0,0,1,-815,3035.0308050280937) translate(38.173828125 26.875)"/><use xlink:href="#ac" transform="matrix(1,0,0,1,-815,3035.0308050280937) translate(124.912109375 26.875)"/><use xlink:href="#ad" transform="matrix(1,0,0,1,-815,3035.0308050280937) translate(142.353515625 26.875)"/><use xlink:href="#ae" transform="matrix(1,0,0,1,-815,3035.0308050280937) translate(171.07421875 26.875)"/><path d="M-700 2693.47v87.3" stroke="#000" fill="none"/><path d="M-699.52 2693.5h-.96v-.53h.96z" stroke="#000" stroke-width=".05"/><path d="M-700 2795.54l-4.63-14.27h9.26z" stroke="#000"/><path d="M-699.52 3012.15h-.96v-28.47h.96zm0-49.98h-.96v-44.35h.96z" stroke="#000" stroke-width=".05"/><path d="M-700 2917.32l.48-.02v.54h-.96v-.54z"/><path stroke="#000" stroke-width=".05"/><path d="M-700 3026.9l-4.63-14.25h9.26z"/><path d="M-700 3028.45l-5.3-16.28h10.6zm-3.98-15.33l3.98 12.26 3.98-12.26z" stroke="#000" stroke-width=".05"/><use xlink:href="#S" transform="matrix(1,0,0,1,-712.2265625,2962.1722489721137) translate(0 17.22222222222222)"/><path d="M-837.88 1156.88h-146.1l-.88.07-.85.2-.8.33-.75.46-.66.56-.57.66-.45.74-.33.8-.2.84-.07.88V3049l.06.88.2.84.34.8.45.74.56.66.65.56.74.46.8.33.84.2.88.07H-822v.95h-162.02l-1-.1-.98-.22-.94-.4-.87-.53-.78-.66-.66-.78-.53-.86-.4-.94-.23-1-.08-1V1162.4l.08-1 .24-1 .4-.93.52-.87.66-.77.77-.66.86-.53.94-.4 1-.23.98-.07h146.14z" stroke="#000" stroke-width=".05"/><path d="M-821.5 3055.5h-.5v-.96h.5z"/><path stroke="#000" stroke-width=".05"/><path d="M-823.12 1156.4l-14.26 4.64v-9.27z"/><path d="M-821.58 1156.4l-16.28 5.3v-10.58zm-15.33 4l12.25-4-12.26-3.98z" stroke="#000" stroke-width=".05"/><path d="M-705.37 2799.92a12 12 0 0 1 10.74 0l109.26 54.64a3 3 0 0 1 0 5.36l-109.26 54.64a12 12 0 0 1-10.74 0l-109.26-54.64a3 3 0 0 1 0-5.36z" stroke="#000" stroke-width="3" fill-opacity="0"/><use xlink:href="#J" transform="matrix(1,0,0,1,-815,2802.2388638239254) translate(68.7940625 46.875)"/><use xlink:href="#ac" transform="matrix(1,0,0,1,-815,2802.2388638239254) translate(90.346796875 46.875)"/><use xlink:href="#af" transform="matrix(1,0,0,1,-815,2802.2388638239254) translate(107.788203125 46.875)"/><use xlink:href="#ag" transform="matrix(1,0,0,1,-815,2802.2388638239254) translate(131.186640625 46.875)"/><use xlink:href="#ah" transform="matrix(1,0,0,1,-815,2802.2388638239254) translate(36.04015625 71.07421875)"/><use xlink:href="#ai" transform="matrix(1,0,0,1,-815,2802.2388638239254) translate(133.042109375 71.07421875)"/><path d="M-391.9 2857.63v.95h-71.16v-.96zm-189.8.08v-.94h87.04v.95z" stroke="#000" stroke-width=".05"/><path d="M-581.7 2857.7h-.55l.05-.46-.05-.48h.56z"/><path stroke="#000" stroke-width=".05"/><path d="M-377.14 2858.1l-14.27 4.64v-9.27z"/><path d="M-375.6 2858.1l-16.28 5.3v-10.6zm-15.33 3.98l12.25-3.98-12.25-3.98z" stroke="#000" stroke-width=".05"/><use xlink:href="#T" transform="matrix(1,0,0,1,-494.6597593838249,2846.9153845970845) translate(0 17.22222222222222)"/><path d="M-96.4 2836.47c11.95 0 21.63 9.7 21.63 21.63 0 11.95-9.7 21.63-21.63 21.63h-256c-11.93 0-21.62-9.68-21.62-21.63 0-11.94 9.7-21.63 21.63-21.63z" stroke="#000" stroke-width="3" fill-opacity="0"/><use xlink:href="#aj" transform="matrix(1,0,0,1,-369.01697304860335,2841.4724915930683) translate(84.7705078125 23.625)"/><use xlink:href="#ak" transform="matrix(1,0,0,1,-369.01697304860335,2841.4724915930683) translate(170.9033203125 23.625)"/><path d="M320 740c22.1 0 40 17.9 40 40s-17.9 40-40 40h-80c-22.1 0-40-17.9-40-40s17.9-40 40-40z" stroke="#000" stroke-width="3" fill-opacity="0"/><use xlink:href="#n" transform="matrix(1,0,0,1,205,745) translate(25.8642578125 41.25)"/><use xlink:href="#w" transform="matrix(1,0,0,1,205,745) translate(79.0478515625 41.25)"/><path d="M160 942.3a6 6 0 0 1 6-6h228a6 6 0 0 1 6 6v37.53a6 6 0 0 1-6 6H166a6 6 0 0 1-6-6z" stroke="#000" stroke-width="3" fill-opacity="0"/><use xlink:href="#p" transform="matrix(1,0,0,1,165,941.3072403142178) translate(31.6943359375 26.875)"/><use xlink:href="#l" transform="matrix(1,0,0,1,165,941.3072403142178) translate(85.8740234375 26.875)"/><use xlink:href="#o" transform="matrix(1,0,0,1,165,941.3072403142178) translate(139.0576171875 26.875)"/><path d="M280 822v96.42" stroke="#000" fill="none"/><path d="M280.48 822h-.96v-.5h.96z" stroke="#000" stroke-width=".05"/><path d="M280 933.2l-4.63-14.28h9.26z" stroke="#000"/><path d="M-58.27 961.07H157" stroke="#000" stroke-width="3" fill="none"/><path d="M-74.04 961.07l14.27-4.64v9.28z" stroke="#000" stroke-width="3" fill="#fff"/><path d="M158.5 962.54h-1.54v-2.94h1.54z" stroke="#000" stroke-width=".05"/><path d="M274.62 1085.57a12.14 12.14 0 0 1 10.76 0l109.24 54a2.96 2.96 0 0 1 0 5.3l-109.24 54a12.14 12.14 0 0 1-10.76 0l-109.24-54a2.96 2.96 0 0 1 0-5.3z" stroke="#000" stroke-width="3" fill-opacity="0"/><use xlink:href="#d" transform="matrix(1,0,0,1,165,1087.9066358687223) translate(24.296992187500006 60.25)"/><use xlink:href="#e" transform="matrix(1,0,0,1,165,1087.9066358687223) translate(71.23058593750001 60.25)"/><use xlink:href="#q" transform="matrix(1,0,0,1,165,1087.9066358687223) translate(103.19347656250001 60.25)"/><use xlink:href="#r" transform="matrix(1,0,0,1,165,1087.9066358687223) translate(148.9258984375 60.25)"/><path d="M452.7 1136.24l-.08 1-.24.98-.4.94-.52.87-.66.77-.78.66-.86.53-.94.38-1 .23-.98.1h-47.96v-.96h47.92l.88-.07.85-.2.8-.33.73-.45.66-.58.57-.65.44-.74.33-.8.2-.85.07-.88v-47.8h.95zm-5.47-93.83l1 .25.93.4.86.52.78.66.66.77.53.87.38.94.24 1 .07 1v18.1h-.96v-18.07l-.07-.9-.2-.83-.33-.8-.45-.74-.58-.66-.66-.56-.73-.45-.8-.35-.85-.2-.88-.07H286.02l-.88.07-.85.2-.8.34-.75.44-.66.56-.57.66-.45.74-.33.8-.2.84-.07.9v17.58h-.96v-17.63l.08-1 .24-1 .4-.93.52-.87.66-.77.77-.66.86-.53.94-.4 1-.23.98-.07h160.26z" stroke="#000" stroke-width=".05"/><path d="M398.3 1142.7h-.57l.05-.48-.05-.48h.56z"/><path stroke="#000" stroke-width=".05"/><path d="M280 1081.2l-4.63-14.28h9.26z"/><path d="M280 1082.73l-5.3-16.28h10.6zm-3.98-15.33l3.98 12.25 3.98-12.25z" stroke="#000" stroke-width=".05"/><use xlink:href="#al" transform="matrix(1,0,0,1,345.27793532605295,1066.9003182244915) translate(0 17.22222222222222)"/><use xlink:href="#am" transform="matrix(1,0,0,1,345.27793532605295,1066.9003182244915) translate(41.744791666666664 17.22222222222222)"/><use xlink:href="#an" transform="matrix(1,0,0,1,345.27793532605295,1066.9003182244915) translate(98.65451388888889 17.22222222222222)"/><use xlink:href="#ao" transform="matrix(1,0,0,1,345.27793532605295,1066.9003182244915) translate(133.828125 17.22222222222222)"/><path d="M-77.4 1061.25H35.67a6 6 0 0 1 6 6v68.97a6 6 0 0 0 6 6h93.94" stroke="#000" stroke-width="3" fill="none"/><path d="M-77.35 1062.72h-1.93l.78-2.94h1.15z" stroke="#000" stroke-width=".05"/><path d="M157.36 1142.22l-14.26 4.63v-9.27z" stroke="#000" stroke-width="3" fill="#fff"/><path d="M280 987.83v77.47" stroke="#000" fill="none"/><path d="M280.48 987.85h-.96v-.52h.96z" stroke="#000" stroke-width=".05"/><path d="M280 1080.07l-4.63-14.27h9.26z" stroke="#000"/><path d="M281.48 1316.84l-.1 1.12-.27 1.14-.44 1.08-.6 1-.77.9-.9.76-1 .6-1.1.46-1.13.27-1.1.1H-58.28v-2.96h332.2l.78-.05.7-.16.65-.3.6-.36.55-.46.46-.54.37-.6.27-.66.16-.7.06-.75v-21.7h2.96zm0-43.3h-2.96v-70.4h2.96z" stroke="#000" stroke-width=".05"/><path d="M-59.77 1327.42l-14.27-4.63 14.27-4.65z" fill="#fff"/><path d="M-58.3 1329.45l-20.5-6.66 20.5-6.68zm-10.96-6.66l8 2.6v-5.22z" stroke="#000" stroke-width=".05"/><path d="M278.75 1201.57l1.25.06 1.25-.06.23-.03v1.63h-2.96v-1.63z"/><path stroke="#000" stroke-width=".05"/><path d="M274.62 1369.7a12.14 12.14 0 0 1 10.76 0l109.24 54a2.96 2.96 0 0 1 0 5.3l-109.24 54a12.14 12.14 0 0 1-10.76 0l-109.24-54a2.96 2.96 0 0 1 0-5.3z" stroke="#000" stroke-width="3" fill-opacity="0"/><g><use xlink:href="#d" transform="matrix(1,0,0,1,165,1372.036294356586) translate(78.3692578125 50.03125)"/><use xlink:href="#E" transform="matrix(1,0,0,1,165,1372.036294356586) translate(125.3028515625 50.03125)"/><use xlink:href="#t" transform="matrix(1,0,0,1,165,1372.036294356586) translate(56.00109375 74.23046875)"/><use xlink:href="#ap" transform="matrix(1,0,0,1,165,1372.036294356586) translate(133.921015625 74.23046875)"/></g><path d="M452.7 1420.37l-.08 1-.24.98-.4.94-.52.86-.66.77-.78.66-.86.52-.94.4-1 .22-.98.08h-47.96v-.95h47.92l.88-.07.85-.2.8-.33.73-.45.66-.57.57-.65.44-.74.33-.8.2-.85.07-.87v-47.8h.95zm-5.47-93.83l1 .24.93.4.86.52.78.66.66.77.53.87.38.93.24 1 .07 1v18.1h-.96v-18.08l-.07-.88-.2-.84-.33-.8-.45-.74-.58-.67-.66-.56-.73-.45-.8-.34-.85-.2-.88-.07H286.02l-.88.08-.85.2-.8.34-.75.45-.66.56-.57.66-.45.73-.33.8-.2.84-.07.88v17.6h-.96v-17.63l.08-1 .24-1 .4-.92.52-.87.66-.77.77-.66.86-.53.94-.4 1-.23.98-.08h160.26z" stroke="#000" stroke-width=".05"/><path d="M398.3 1426.82h-.57l.05-.47-.05-.48h.56z"/><path stroke="#000" stroke-width=".05"/><path d="M280 1365.32l-4.63-14.27h9.26z"/><path d="M280 1366.86l-5.3-16.28h10.6zm-3.98-15.33l3.98 12.25 3.98-12.25z" stroke="#000" stroke-width=".05"/><g><use xlink:href="#aq" transform="matrix(1,0,0,1,338.3899144927196,1351.0299767123552) translate(0 17.22222222222222)"/><use xlink:href="#ar" transform="matrix(1,0,0,1,338.3899144927196,1351.0299767123552) translate(71.34548611111111 17.22222222222222)"/><use xlink:href="#an" transform="matrix(1,0,0,1,338.3899144927196,1351.0299767123552) translate(112.43055555555556 17.22222222222222)"/><use xlink:href="#ao" transform="matrix(1,0,0,1,338.3899144927196,1351.0299767123552) translate(147.60416666666669 17.22222222222222)"/></g><path d="M280.48 1350.55h-.96v-55.5h.96zm0-77.02h-.96v-71.4h.96z" stroke="#000" stroke-width=".05"/><path d="M280 1201.63l.48-.02v.54h-.96v-.53z"/><path stroke="#000" stroke-width=".05"/><path d="M280 1365.32l-4.63-14.27h9.26z"/><path d="M280 1366.86l-5.3-16.28h10.6zm-3.98-15.33l3.98 12.25 3.98-12.25z" stroke="#000" stroke-width=".05"/><g><use xlink:href="#S" transform="matrix(1,0,0,1,267.7734375,1273.5279922793209) translate(0 17.22222222222222)"/></g><path d="M-78.24 1426.35H141.6" stroke="#000" stroke-width="3" fill="none"/><path d="M-78.2 1427.82h-1.94l.8-2.95h1.14z" stroke="#000" stroke-width=".05"/><path d="M157.36 1426.35l-14.26 4.63v-9.27z" stroke="#000" stroke-width="3" fill="#fff"/><path d="M280 1487.26v78.45a6 6 0 0 1-6 6H-58.27" stroke="#000" stroke-width="3" fill="none"/><path d="M278.75 1485.7l1.25.06 1.25-.06.23-.03v1.63h-2.96v-1.63z" stroke="#000" stroke-width=".05"/><path d="M-74.04 1571.7l14.27-4.62v9.27z" stroke="#000" stroke-width="3" fill="#fff"/><path d="M274.62 1645.83a12.14 12.14 0 0 1 10.76 0l109.24 54a2.96 2.96 0 0 1 0 5.3l-109.24 54a12.14 12.14 0 0 1-10.76 0l-109.24-54a2.96 2.96 0 0 1 0-5.3z" stroke="#000" stroke-width="3" fill-opacity="0"/><g><use xlink:href="#d" transform="matrix(1,0,0,1,165,1648.1667313670353) translate(59.233515625 50.03125)"/><use xlink:href="#e" transform="matrix(1,0,0,1,165,1648.1667313670353) translate(106.167109375 50.03125)"/><use xlink:href="#as" transform="matrix(1,0,0,1,165,1648.1667313670353) translate(138.13 50.03125)"/><use xlink:href="#B" transform="matrix(1,0,0,1,165,1648.1667313670353) translate(78.8575390625 74.23046875)"/></g><path d="M452.7 1696.5l-.08 1-.24.98-.4.94-.52.87-.66.76-.78.66-.86.53-.94.4-1 .22-.98.08h-47.96v-.95h47.92l.88-.07.85-.2.8-.33.73-.45.66-.57.57-.66.44-.73.33-.82.2-.84.07-.88v-56.3h.95zm-5.47-106.9l1 .24.93.4.86.52.78.66.66.77.53.86.38.94.24 1 .07.98v22.68h-.96v-22.64l-.07-.88-.2-.85-.33-.8-.45-.75-.58-.66-.66-.57-.73-.45-.8-.33-.85-.2-.88-.08H286.02l-.88.07-.85.2-.8.34-.75.45-.66.56-.57.65-.45.74-.33.8-.2.84-.07.88v30.66h-.96v-30.7l.08-1 .24-.98.4-.94.52-.87.66-.78.77-.66.86-.53.94-.4 1-.23.98-.07h160.26z" stroke="#000" stroke-width=".05"/><path d="M398.3 1702.95h-.57l.05-.47-.05-.48h.56z"/><path stroke="#000" stroke-width=".05"/><path d="M280 1641.45l-4.63-14.27h9.26z"/><path d="M280 1643l-5.3-16.3h10.6zm-3.98-15.34l3.98 12.25 3.98-12.24z" stroke="#000" stroke-width=".05"/><g><use xlink:href="#aq" transform="matrix(1,0,0,1,319.6572756038307,1618.6648862904492) translate(0 17.22222222222222)"/><use xlink:href="#at" transform="matrix(1,0,0,1,319.6572756038307,1618.6648862904492) translate(71.34548611111111 17.22222222222222)"/><use xlink:href="#au" transform="matrix(1,0,0,1,319.6572756038307,1618.6648862904492) translate(93.53298611111111 17.22222222222222)"/><use xlink:href="#av" transform="matrix(1,0,0,1,319.6572756038307,1618.6648862904492) translate(134.61805555555554 17.22222222222222)"/><use xlink:href="#an" transform="matrix(1,0,0,1,319.6572756038307,1618.6648862904492) translate(149.89583333333331 17.22222222222222)"/><use xlink:href="#ao" transform="matrix(1,0,0,1,319.6572756038307,1618.6648862904492) translate(185.06944444444443 17.22222222222222)"/></g><path d="M280 1486.26v140.42" stroke="#000" fill="none"/><path d="M280 1485.76l.48-.02v.53h-.96v-.53z" stroke="#000" stroke-width=".05"/><path d="M280 1641.45l-4.63-14.27h9.26z" stroke="#000"/><path d="M-77.47 1704.56h219.59" stroke="#000" stroke-width="3" fill="none"/><path d="M-77.43 1706.04h-1.93l.78-2.95h1.15z" stroke="#000" stroke-width=".05"/><path d="M157.9 1704.56l-14.27 4.64v-9.27z" stroke="#000" stroke-width="3" fill="#fff"/><path d="M280 1763.4v51.7a6 6 0 0 1-6 6H-58.27" stroke="#000" stroke-width="3" fill="none"/><path d="M278.75 1761.83l1.25.06 1.25-.07.23-.03v1.63h-2.96v-1.63z" stroke="#000" stroke-width=".05"/><path d="M-74.04 1821.1l14.27-4.63v9.27z" stroke="#000" stroke-width="3" fill="#fff"/><path d="M160 2152.9a6 6 0 0 1 6-6h228a6 6 0 0 1 6 6v47.22a6 6 0 0 1-6 6H166a6 6 0 0 1-6-6z" stroke="#000" stroke-width="3" fill-opacity="0"/><g><use xlink:href="#p" transform="matrix(1,0,0,1,165,2151.8912613116163) translate(11.23046875 31.875)"/><use xlink:href="#F" transform="matrix(1,0,0,1,165,2151.8912613116163) translate(65.41015625 31.875)"/><use xlink:href="#aw" transform="matrix(1,0,0,1,165,2151.8912613116163) translate(139.169921875 31.875)"/></g><path d="M157 2176.5H-57.52" stroke="#000" stroke-width="3" fill="none"/><path d="M158.5 2177.98h-1.54v-2.95h1.54z" stroke="#000" stroke-width=".05"/><path d="M-73.28 2176.5l14.26-4.63v9.27z" stroke="#000" stroke-width="3" fill="#fff"/><path d="M280 1996.56V2129" stroke="#000" fill="none"/><path d="M280.48 1996.57h-.96v-.5h.96z" stroke="#000" stroke-width=".05"/><path d="M280 2143.77l-4.63-14.26h9.26z" stroke="#000"/><path d="M280 1762.4v155.05" stroke="#000" fill="none"/><path d="M280 1761.9l.48-.03v.53h-.96v-.53z" stroke="#000" stroke-width=".05"/><path d="M280 1932.2l-4.63-14.25h9.26z" stroke="#000"/><path d="M160 1941.33a6 6 0 0 1 6-6h228a6 6 0 0 1 6 6v47.23a6 6 0 0 1-6 6H166a6 6 0 0 1-6-6z" stroke="#000" stroke-width="3" fill-opacity="0"/><g><use xlink:href="#ax" transform="matrix(1,0,0,1,165,1940.329675864247) translate(56.435546875 31.875)"/><use xlink:href="#B" transform="matrix(1,0,0,1,165,1940.329675864247) translate(101.26953125 31.875)"/></g><path d="M274.62 2404.03a12.14 12.14 0 0 1 10.76 0l109.24 54a2.96 2.96 0 0 1 0 5.32l-109.24 54a12.14 12.14 0 0 1-10.76 0l-109.24-54a2.96 2.96 0 0 1 0-5.32z" stroke="#000" stroke-width="3" fill-opacity="0"/><g><use xlink:href="#J" transform="matrix(1,0,0,1,165,2406.3765284970923) translate(53.97960937500001 60.25)"/><use xlink:href="#ay" transform="matrix(1,0,0,1,165,2406.3765284970923) translate(75.53234375000001 60.25)"/><use xlink:href="#az" transform="matrix(1,0,0,1,165,2406.3765284970923) translate(125.69835937500001 60.25)"/></g><path d="M160 2294.98a6 6 0 0 1 6-6h228a6 6 0 0 1 6 6v47.23a6 6 0 0 1-6 6H166a6 6 0 0 1-6-6z" stroke="#000" stroke-width="3" fill-opacity="0"/><g><use xlink:href="#aA" transform="matrix(1,0,0,1,165,2293.982070472389) translate(18.046875 22.5)"/><use xlink:href="#q" transform="matrix(1,0,0,1,165,2293.982070472389) translate(118.681640625 22.5)"/><use xlink:href="#aB" transform="matrix(1,0,0,1,165,2293.982070472389) translate(164.4140625 22.5)"/><use xlink:href="#aC" transform="matrix(1,0,0,1,165,2293.982070472389) translate(77.109375 46.69921875)"/></g><path d="M280 2208.12v62.98" stroke="#000" fill="none"/><path d="M280.48 2208.14h-.96v-.52h.96z" stroke="#000" stroke-width=".05"/><path d="M280 2285.86l-4.63-14.26h9.26z" stroke="#000"/><path d="M280 2350.2v34.7" stroke="#000" fill="none"/><path d="M280.48 2350.23h-.96v-.52h.96z" stroke="#000" stroke-width=".05"/><path d="M280 2399.66l-4.63-14.27h9.26z" stroke="#000"/><path d="M483.77 2461.16h-85.5v-.95h85.5zM615 1326.54l1 .24.94.4.87.52.78.66.66.77.53.87.4.93.23 1 .08 1V2454.7l-.08 1-.24 1-.4.93-.52.86-.66.77-.77.66-.86.53-.94.4-1 .22-.98.08h-105.8v-.95H614l.88-.06.85-.2.8-.33.75-.44.66-.57.57-.66.45-.74.33-.8.2-.85.07-.88V1332.95l-.06-.88-.2-.84-.34-.8-.45-.74-.56-.67-.65-.56-.74-.45-.8-.34-.84-.2-.88-.07H286.02l-.88.08-.85.2-.8.34-.75.45-.66.56-.57.66-.45.73-.33.8-.2.84-.07.88v17.6h-.96v-17.63l.08-1 .24-1 .4-.92.52-.87.66-.77.77-.66.86-.53.94-.4 1-.23.98-.08h328.04z" stroke="#000" stroke-width=".05"/><path d="M398.3 2461.16h-.57l.05-.47-.05-.5h.56z"/><path stroke="#000" stroke-width=".05"/><path d="M280 1365.32l-4.63-14.27h9.26z"/><path d="M280 1366.86l-5.3-16.28h10.6zm-3.98-15.33l3.98 12.25 3.98-12.25z" stroke="#000" stroke-width=".05"/><g><use xlink:href="#S" transform="matrix(1,0,0,1,483.7734375,2449.9330558156394) translate(0 17.22222222222222)"/></g><path d="M408.97 2640c11.4 0 20.65 9.25 20.65 20.66 0 11.4-9.25 20.65-20.65 20.65H151.03c-11.4 0-20.65-9.24-20.65-20.64s9.25-20.66 20.65-20.66z" stroke="#000" stroke-width="3" fill-opacity="0"/><g><use xlink:href="#aj" transform="matrix(1,0,0,1,135.3770183247296,2645) translate(84.2705078125 23.375)"/><use xlink:href="#ak" transform="matrix(1,0,0,1,135.3770183247296,2645) translate(170.4033203125 23.375)"/></g><path d="M280.48 2622.12h-.96v-32.07h.96zm0-53.57h-.96v-47.95h.96z" stroke="#000" stroke-width=".05"/><path d="M280 2520.1l.48-.02v.53h-.96v-.52z"/><path stroke="#000" stroke-width=".05"/><path d="M280 2636.88l-4.63-14.26h9.26z"/><path d="M280 2638.42l-5.3-16.28h10.6zm-3.98-15.33l3.98 12.24 3.98-12.25z" stroke="#000" stroke-width=".05"/><g><use xlink:href="#T" transform="matrix(1,0,0,1,264.2013888888889,2568.544652338268) translate(0 17.22222222222222)"/></g><path d="M-340 882.3a6 6 0 0 1 6-6h228a6 6 0 0 1 6 6v48a6 6 0 0 1-6 6h-228a6 6 0 0 1-6-6z" fill="none"/><g><use xlink:href="#aD" transform="matrix(1,0,0,1,-340,876.3072403142178) translate(39.59092881944446 38.083767361111114)"/><use xlink:href="#aE" transform="matrix(1,0,0,1,-340,876.3072403142178) translate(105.93207465277779 38.083767361111114)"/></g><defs><path d="M180 0v-1490h190v644h782v-644h190V0h-190v-678H370V0H180" id="aF"/><path d="M613 24c-304 0-509-231-509-576 0-350 205-580 509-580 305 0 511 230 511 580 0 345-206 576-511 576zm0-161c226 0 329-195 329-415 0-222-103-419-329-419-223 0-326 196-326 419 0 220 103 415 326 415" id="aG"/><path d="M538 24C308 24 148-78 108-271l171-41c32 123 123 178 257 178 156 0 256-77 256-169 0-77-54-128-164-154l-186-44c-203-48-300-148-300-305 0-192 176-326 414-326 230 0 351 112 402 269l-163 42c-31-80-94-158-238-158-133 0-233 69-233 162 0 83 57 129 188 160l169 40c203 48 298 149 298 302 0 196-179 339-441 339" id="aH"/><path d="M598-1118v154H368v674c0 100 37 144 132 144 23 0 62-6 92-12L629-6c-37 13-88 20-134 20-193 0-307-107-307-290v-688H20v-154h168v-266h180v266h230" id="aI"/><g id="a"><use transform="matrix(0.009765625,0,0,0.009765625,0,0)" xlink:href="#aF"/><use transform="matrix(0.009765625,0,0,0.009765625,14.86328125,0)" xlink:href="#aG"/><use transform="matrix(0.009765625,0,0,0.009765625,26.85546875,0)" xlink:href="#aH"/><use transform="matrix(0.009765625,0,0,0.009765625,37.412109375,0)" xlink:href="#aI"/></g><path d="M180 0v-1490h510c348 0 508 209 508 474 0 266-160 477-507 477H370V0H180zm190-706h312c236 0 327-133 327-310 0-176-91-307-329-307H370v617" id="aJ"/><path d="M783 20c-382 0-661-292-661-764 0-473 279-766 661-766 302 0 548 182 601 489h-190c-42-204-217-313-411-313-268 0-476 208-476 590 0 381 209 588 476 588 195 0 369-110 411-313h190c-52 303-296 489-601 489" id="aK"/><g id="b"><use transform="matrix(0.009765625,0,0,0.009765625,0,0)" xlink:href="#aJ"/><use transform="matrix(0.009765625,0,0,0.009765625,12.7734375,0)" xlink:href="#aK"/></g><path d="M657 26c-323 0-524-166-541-416h195c15 169 171 246 346 246 202 0 356-106 356-265 5-203-294-238-475-293-239-73-380-191-380-389 0-252 224-419 512-419 294 0 499 171 508 396H992c-17-145-151-228-328-228-193 0-321 102-321 242 0 156 175 211 284 241l149 41c160 44 422 134 422 412 0 244-197 432-541 432" id="aL"/><path d="M471 26C259 26 90-98 90-318c0-256 228-303 435-329 202-27 287-16 287-108 0-139-79-219-234-219-161 0-248 86-283 164l-173-57c86-203 278-265 451-265 150 0 419 46 419 395V0H815v-152h-12C765-73 660 26 471 26zm31-159c199 0 310-134 310-271v-155c-30 35-226 55-295 64-131 17-246 59-246 186 0 116 97 176 231 176" id="aM"/><path d="M158 0v-1118h174v172h12c41-113 157-188 290-188 26 0 70 2 91 3v181c-11-2-60-10-108-10-161 0-279 109-279 260V0H158" id="aN"/><g id="c"><use transform="matrix(0.009765625,0,0,0.009765625,0,0)" xlink:href="#aL"/><use transform="matrix(0.009765625,0,0,0.009765625,12.83203125,0)" xlink:href="#aI"/><use transform="matrix(0.009765625,0,0,0.009765625,19.47265625,0)" xlink:href="#aM"/><use transform="matrix(0.009765625,0,0,0.009765625,30.703125,0)" xlink:href="#aN"/><use transform="matrix(0.009765625,0,0,0.009765625,38.544921875,0)" xlink:href="#aI"/></g><path d="M458 0L52-1490h194c108 439 233 855 324 1313 92-459 221-873 331-1313h216c110 438 234 854 330 1307 92-455 216-869 323-1307h196L1558 0h-221l-256-944c-26-95-50-200-73-331-22 122-44 223-73 331L680 0H458" id="aO"/><path d="M158 0v-1118h180V0H158zm91-1301c-68 0-125-53-125-119s57-119 125-119c69 0 126 53 126 119s-57 119-126 119" id="aP"/><g id="d"><use transform="matrix(0.009765625,0,0,0.009765625,0,0)" xlink:href="#aO"/><use transform="matrix(0.009765625,0,0,0.009765625,18.69140625,0)" xlink:href="#aM"/><use transform="matrix(0.009765625,0,0,0.009765625,29.921875,0)" xlink:href="#aP"/><use transform="matrix(0.009765625,0,0,0.009765625,34.765625,0)" xlink:href="#aI"/></g><path d="M678-1118v154H420V0H240v-964H20v-154h220v-149c0-194 155-293 318-293 85 0 141 18 168 30l-50 154c-19-6-47-17-97-17-111 0-159 58-159 166v109h258" id="aQ"/><g id="e"><use transform="matrix(0.009765625,0,0,0.009765625,0,0)" xlink:href="#aQ"/><use transform="matrix(0.009765625,0,0,0.009765625,6.81640625,0)" xlink:href="#aG"/><use transform="matrix(0.009765625,0,0,0.009765625,18.80859375,0)" xlink:href="#aN"/></g><path d="M180 0v-1490h270l367 940c28 72 75 218 110 339 35-117 81-264 110-339l362-940h271V0h-187c2-448-5-837 7-1287-157 497-311 829-483 1287H842C666-458 514-784 354-1284c12 438 5 843 7 1284H180" id="aR"/><path d="M763 24c-353 0-583-224-583-531v-983h190v968c0 214 149 370 393 370 243 0 391-156 391-370v-968h190v983c0 307-230 531-581 531" id="aS"/><g id="f"><use transform="matrix(0.009765625,0,0,0.009765625,0,0)" xlink:href="#aR"/><use transform="matrix(0.009765625,0,0,0.009765625,18.06640625,0)" xlink:href="#aK"/><use transform="matrix(0.009765625,0,0,0.009765625,32.67578125,0)" xlink:href="#aS"/></g><path d="M180 0v-1490h510c348 0 508 194 508 460 0 198-88 351-276 417L1256 0h-220L726-579c-117 2-238 0-356 1V0H180zm190-747h312c235 0 327-108 327-283 0-177-92-293-329-293H370v576" id="aT"/><path d="M628 24c-324 0-524-230-524-574 0-343 198-582 503-582 237 0 487 146 487 559v75H286c9 234 145 362 343 362 132 0 231-58 273-172l174 48C1024-91 857 24 628 24zM287-650h624c-17-190-120-322-304-322-192 0-309 151-320 322" id="aU"/><path d="M577 24c-279 0-473-224-473-580 0-354 195-576 474-576 218 0 287 134 324 193h14v-551h180V0H922v-173h-20C865-111 790 24 577 24zm27-161c203 0 314-172 314-421 0-247-108-413-314-413-212 0-317 181-317 413 0 235 108 421 317 421" id="aV"/><path d="M140 405l46-156c120 36 205 19 263-150l32-93L54-1118h197c107 313 237 620 324 950 87-331 219-637 326-950h196L606 167c-68 178-176 259-334 259-64 0-113-12-132-21" id="aW"/><g id="g"><use transform="matrix(0.009765625,0,0,0.009765625,0,0)" xlink:href="#aT"/><use transform="matrix(0.009765625,0,0,0.009765625,12.578125,0)" xlink:href="#aU"/><use transform="matrix(0.009765625,0,0,0.009765625,24.43359375,0)" xlink:href="#aM"/><use transform="matrix(0.009765625,0,0,0.009765625,35.6640625,0)" xlink:href="#aV"/><use transform="matrix(0.009765625,0,0,0.009765625,48.0078125,0)" xlink:href="#aW"/></g><path d="M611 442c-248 0-391-105-460-228l146-94c47 65 117 165 314 165 178 0 307-82 307-266v-224h-17C863-141 792-18 576-18c-268 0-472-195-472-546 0-346 197-568 476-568 216 0 288 133 326 193h17v-179h175V29c0 289-215 413-487 413zm-5-620c203 0 314-146 314-390 0-237-108-403-314-403-213 0-319 180-319 403 0 230 109 390 319 390" id="aX"/><path d="M338-670V0H158v-1118h173l1 207c72-158 192-221 342-221 226 0 378 139 378 422V0H872v-695c0-172-96-275-252-275-161 0-282 109-282 300" id="aY"/><path d="M338-1490V0H158v-1490h180" id="aZ"/><g id="h"><use transform="matrix(0.009765625,0,0,0.009765625,0,0)" xlink:href="#aL"/><use transform="matrix(0.009765625,0,0,0.009765625,12.83203125,0)" xlink:href="#aP"/><use transform="matrix(0.009765625,0,0,0.009765625,17.67578125,0)" xlink:href="#aX"/><use transform="matrix(0.009765625,0,0,0.009765625,29.94140625,0)" xlink:href="#aY"/><use transform="matrix(0.009765625,0,0,0.009765625,41.7578125,0)" xlink:href="#aM"/><use transform="matrix(0.009765625,0,0,0.009765625,52.98828125,0)" xlink:href="#aZ"/></g><path fill="#333" d="M681 22C323 22 94-145 85-462h297c10 151 131 226 296 226 163 0 271-77 271-190 0-102-95-149-257-189l-164-41c-252-61-403-188-403-405 0-269 236-449 560-449 330 0 546 183 551 445H941c-11-119-106-188-259-188-156 0-244 72-244 172-3 156 226 185 373 221 250 61 445 186 445 436 0 271-213 446-575 446" id="ba"/><path fill="#333" d="M128 0v-1118h300V0H128zm150-1264c-91 0-165-68-165-154 0-85 74-154 165-154 90 0 165 69 165 154 0 86-75 154-165 154" id="bb"/><path fill="#333" d="M625 442c-280 0-454-114-503-274l258-72c28 63 97 128 243 128 153 0 246-69 246-216v-206h-23C805-108 717-16 536-16 284-16 81-191 81-561c0-378 208-571 456-571 188 0 280 113 321 202h13v-188h295V-9c0 303-226 451-541 451zm5-686c153 0 240-119 240-319 0-198-86-329-240-329-158 0-241 137-241 329 0 195 85 319 241 319" id="bc"/><path fill="#333" d="M428-647V0H128v-1118h283l4 231c63-156 176-245 348-245 232 0 384 159 384 421V0H847v-659c0-139-76-222-202-222-128 0-217 86-217 234" id="bd"/><path fill="#333" d="M440 22C227 22 68-92 68-313c0-250 202-322 422-343 195-21 271-24 271-105 0-95-63-149-175-149-116 0-187 57-211 129l-275-46c57-194 237-305 487-305 240 0 474 108 474 379V0H777v-155h-10C713-51 605 22 440 22zm85-211c140 0 238-93 238-211v-121c-37 26-156 42-222 51-111 16-185 59-185 149 0 87 70 132 169 132" id="be"/><path fill="#333" d="M428-1490V0H128v-1490h300" id="bf"/><g id="i"><use transform="matrix(0.006510416666666667,0,0,0.006510416666666667,0,0)" xlink:href="#ba"/><use transform="matrix(0.006510416666666667,0,0,0.006510416666666667,8.73046875,0)" xlink:href="#bb"/><use transform="matrix(0.006510416666666667,0,0,0.006510416666666667,12.34375,0)" xlink:href="#bc"/><use transform="matrix(0.006510416666666667,0,0,0.006510416666666667,20.768229166666668,0)" xlink:href="#bd"/><use transform="matrix(0.006510416666666667,0,0,0.006510416666666667,29.069010416666668,0)" xlink:href="#be"/><use transform="matrix(0.006510416666666667,0,0,0.006510416666666667,36.809895833333336,0)" xlink:href="#bf"/></g><path fill="#333" d="M135 0v-1490h340l471 754c59 97 122 210 187 365-32-387-14-721-19-1119h312V0h-341C855-382 627-689 427-1113c32 420 16 695 20 1113H135" id="bg"/><path fill="#333" d="M628 22C291 22 81-210 81-554c0-346 210-578 547-578 336 0 547 232 547 578 0 344-211 576-547 576zm0-236c160 0 242-146 242-341 0-197-82-341-242-341S387-753 387-555c0 195 81 341 241 341" id="bh"/><path fill="#333" d="M683-1118v229H474v562c0 71 29 104 102 104 23 0 73-7 95-13l43 225C647 9 580 16 520 16 296 16 174-96 174-301v-588H20v-229h154v-266h300v266h209" id="bi"/><g id="j"><use transform="matrix(0.006510416666666667,0,0,0.006510416666666667,0,0)" xlink:href="#bg"/><use transform="matrix(0.006510416666666667,0,0,0.006510416666666667,10.162760416666668,0)" xlink:href="#bh"/><use transform="matrix(0.006510416666666667,0,0,0.006510416666666667,18.33984375,0)" xlink:href="#bi"/></g><path fill="#333" d="M135 0v-1490h581c339 0 533 192 533 485 0 204-94 351-264 424L1302 0H964L680-532H440V0H135zm305-779h220c186 0 274-77 274-226 0-150-88-233-275-233H440v459" id="bj"/><path fill="#333" d="M633 22C291 22 81-200 81-553c0-345 210-579 537-579 292 0 525 185 525 567v84H378c7 183 109 277 260 277 105 0 184-46 216-132l272 51C1071-99 893 22 633 22zM380-669h474c-15-146-94-237-233-237-143 0-229 99-241 237" id="bk"/><path fill="#333" d="M628 22C291 22 81-210 81-554c0-346 210-578 547-578 265 0 455 142 497 372l-279 52c-25-116-99-188-215-188-160 0-244 139-244 341 0 200 84 341 244 341 116 0 193-74 217-195l279 51C1085-123 896 22 628 22" id="bl"/><path fill="#333" d="M443 0L31-1118h319c90 293 199 572 268 885 66-313 175-593 264-885h315L784 0H443" id="bm"/><path fill="#333" d="M537 19C279 19 81-185 81-557c0-382 206-575 454-575 190 0 278 113 318 202h10v-560h300V0H868v-179h-15C812-89 719 19 537 19zm92-241c153 0 240-134 240-336 0-203-86-334-240-334-158 0-240 138-240 334 0 197 84 336 240 336" id="bn"/><g id="k"><use transform="matrix(0.006510416666666667,0,0,0.006510416666666667,0,0)" xlink:href="#bj"/><use transform="matrix(0.006510416666666667,0,0,0.006510416666666667,8.593750000000002,0)" xlink:href="#bk"/><use transform="matrix(0.006510416666666667,0,0,0.006510416666666667,16.536458333333336,0)" xlink:href="#bl"/><use transform="matrix(0.006510416666666667,0,0,0.006510416666666667,24.38151041666667,0)" xlink:href="#bk"/><use transform="matrix(0.006510416666666667,0,0,0.006510416666666667,32.32421875000001,0)" xlink:href="#bb"/><use transform="matrix(0.006510416666666667,0,0,0.006510416666666667,35.93750000000001,0)" xlink:href="#bm"/><use transform="matrix(0.006510416666666667,0,0,0.006510416666666667,43.69140625000001,0)" xlink:href="#bk"/><use transform="matrix(0.006510416666666667,0,0,0.006510416666666667,51.63411458333334,0)" xlink:href="#bn"/></g><g id="l"><use transform="matrix(0.009765625,0,0,0.009765625,0,0)" xlink:href="#aR"/><use transform="matrix(0.009765625,0,0,0.009765625,18.06640625,0)" xlink:href="#aK"/><use transform="matrix(0.009765625,0,0,0.009765625,32.67578125,0)" xlink:href="#aS"/></g><path d="M52 0l541-1490h220L1361 0h-200l-149-416H398L254 0H52zm404-582h497c-103-290-145-390-251-756-108 377-145 460-246 756" id="bo"/><path d="M180 0v-1490h190c0 262 1 526-3 784 217-279 467-523 702-784h249L716-845 1319 0h-225L585-716 370-489V0H180" id="bp"/><g id="m"><use transform="matrix(0.009765625,0,0,0.009765625,0,0)" xlink:href="#bo"/><use transform="matrix(0.009765625,0,0,0.009765625,13.115234375,0)" xlink:href="#aK"/><use transform="matrix(0.009765625,0,0,0.009765625,27.724609375,0)" xlink:href="#bp"/></g><g id="n"><use transform="matrix(0.009765625,0,0,0.009765625,0,0)" xlink:href="#aR"/><use transform="matrix(0.009765625,0,0,0.009765625,18.06640625,0)" xlink:href="#aK"/><use transform="matrix(0.009765625,0,0,0.009765625,32.67578125,0)" xlink:href="#aS"/></g><g id="o"><use transform="matrix(0.009765625,0,0,0.009765625,0,0)" xlink:href="#aT"/><use transform="matrix(0.009765625,0,0,0.009765625,12.578125,0)" xlink:href="#aU"/><use transform="matrix(0.009765625,0,0,0.009765625,24.43359375,0)" xlink:href="#aM"/><use transform="matrix(0.009765625,0,0,0.009765625,35.6640625,0)" xlink:href="#aV"/><use transform="matrix(0.009765625,0,0,0.009765625,48.0078125,0)" xlink:href="#aW"/></g><g id="p"><use transform="matrix(0.009765625,0,0,0.009765625,0,0)" xlink:href="#aL"/><use transform="matrix(0.009765625,0,0,0.009765625,12.83203125,0)" xlink:href="#aU"/><use transform="matrix(0.009765625,0,0,0.009765625,24.4921875,0)" xlink:href="#aY"/><use transform="matrix(0.009765625,0,0,0.009765625,36.30859375,0)" xlink:href="#aV"/></g><path d="M98-1322v-168h1126v168H757V0H567v-1322H98" id="bq"/><g id="q"><use transform="matrix(0.009765625,0,0,0.009765625,0,0)" xlink:href="#bq"/><use transform="matrix(0.009765625,0,0,0.009765625,11.34765625,0)" xlink:href="#aU"/><use transform="matrix(0.009765625,0,0,0.009765625,23.0078125,0)" xlink:href="#aH"/><use transform="matrix(0.009765625,0,0,0.009765625,33.564453125,0)" xlink:href="#aI"/></g><path d="M537 14c-226 0-379-139-379-422v-710h180v695c0 172 97 275 253 275 160 0 281-109 281-300v-670h181V0H879v-209C806-46 684 14 537 14" id="br"/><g id="r"><use transform="matrix(0.009765625,0,0,0.009765625,0,0)" xlink:href="#aK"/><use transform="matrix(0.009765625,0,0,0.009765625,14.609375,0)" xlink:href="#aG"/><use transform="matrix(0.009765625,0,0,0.009765625,26.6015625,0)" xlink:href="#br"/><use transform="matrix(0.009765625,0,0,0.009765625,38.427734375,0)" xlink:href="#aY"/><use transform="matrix(0.009765625,0,0,0.009765625,50.244140625,0)" xlink:href="#aI"/></g><path fill="#333" d="M49 0l509-1490h400L1480 0h-339l-115-346H497L386 0H49zm524-585h374c-75-213-124-402-192-666-66 268-110 453-182 666" id="bs"/><path fill="#333" d="M786 20C389 20 94-260 94-744c0-487 299-766 692-766 339 0 597 194 641 529h-309c-28-162-156-258-326-258-233 0-388 179-388 495 0 323 157 493 387 493 170 0 298-97 328-259h309c-34 277-266 530-642 530" id="bt"/><path fill="#333" d="M135 0v-1490h305c1 251 0 501-5 746 157-254 405-512 598-746h373L849-845 1422 0h-361L638-644 440-426V0H135" id="bu"/><g id="s"><use transform="matrix(0.006510416666666667,0,0,0.006510416666666667,0,0)" xlink:href="#bs"/><use transform="matrix(0.006510416666666667,0,0,0.006510416666666667,9.39453125,0)" xlink:href="#bt"/><use transform="matrix(0.006510416666666667,0,0,0.006510416666666667,19.2578125,0)" xlink:href="#bu"/></g><path d="M645 0H180v-1490h484c435 0 692 280 692 742 0 466-257 748-711 748zM370-168h263c363 0 539-218 539-580 0-358-176-574-521-574H370v1154" id="bv"/><g id="t"><use transform="matrix(0.009765625,0,0,0.009765625,0,0)" xlink:href="#bv"/><use transform="matrix(0.009765625,0,0,0.009765625,14.43359375,0)" xlink:href="#aM"/><use transform="matrix(0.009765625,0,0,0.009765625,25.6640625,0)" xlink:href="#aI"/><use transform="matrix(0.009765625,0,0,0.009765625,32.3046875,0)" xlink:href="#aM"/><use transform="matrix(0.009765625,0,0,0.009765625,43.53515625,0)" xlink:href="#aH"/><use transform="matrix(0.009765625,0,0,0.009765625,54.091796875,0)" xlink:href="#aU"/><use transform="matrix(0.009765625,0,0,0.009765625,65.751953125,0)" xlink:href="#aI"/></g><path d="M126 0v-134l627-806v-11H146v-167h839v143L376-178v11h629V0H126" id="bw"/><g id="u"><use transform="matrix(0.009765625,0,0,0.009765625,0,0)" xlink:href="#aL"/><use transform="matrix(0.009765625,0,0,0.009765625,12.83203125,0)" xlink:href="#aP"/><use transform="matrix(0.009765625,0,0,0.009765625,17.67578125,0)" xlink:href="#bw"/><use transform="matrix(0.009765625,0,0,0.009765625,28.427734375,0)" xlink:href="#aU"/></g><path d="M218-607c0-325 108-727 258-974h175c-155 315-250 682-250 974 0 265 78 531 250 886H476C306-10 218-315 218-607" id="bx"/><path d="M96 279C273-86 346-350 346-607c0-292-95-659-250-974h175c150 246 258 650 258 974 0 297-91 602-258 886H96" id="by"/><g id="v"><use transform="matrix(0.009765625,0,0,0.009765625,0,0)" xlink:href="#bx"/><use transform="matrix(0.009765625,0,0,0.009765625,7.294921875,0)" xlink:href="#aY"/><use transform="matrix(0.009765625,0,0,0.009765625,19.111328125,0)" xlink:href="#by"/></g><g id="w"><use transform="matrix(0.009765625,0,0,0.009765625,0,0)" xlink:href="#aL"/><use transform="matrix(0.009765625,0,0,0.009765625,12.83203125,0)" xlink:href="#aI"/><use transform="matrix(0.009765625,0,0,0.009765625,19.47265625,0)" xlink:href="#aM"/><use transform="matrix(0.009765625,0,0,0.009765625,30.703125,0)" xlink:href="#aN"/><use transform="matrix(0.009765625,0,0,0.009765625,38.544921875,0)" xlink:href="#aI"/></g><path fill="#333" d="M75-1237v-253h1217v253H837V0H531v-1237H75" id="bz"/><path fill="#333" d="M572 22C302 22 117-98 78-306l279-48c29 105 101 156 224 156 114 0 185-48 185-115 0-118-228-130-337-155-215-49-322-150-322-317 0-215 187-347 470-347 265 0 424 116 466 298l-266 47c-24-76-87-130-196-130-98 0-174 46-174 113 0 56 38 95 144 117l201 40c216 44 320 143 320 302 0 220-207 367-500 367" id="bA"/><g id="x"><use transform="matrix(0.006510416666666667,0,0,0.006510416666666667,0,0)" xlink:href="#bz"/><use transform="matrix(0.006510416666666667,0,0,0.006510416666666667,7.858072916666667,0)" xlink:href="#bk"/><use transform="matrix(0.006510416666666667,0,0,0.006510416666666667,15.80078125,0)" xlink:href="#bA"/><use transform="matrix(0.006510416666666667,0,0,0.006510416666666667,23.268229166666668,0)" xlink:href="#bi"/></g><path fill="#333" d="M128 0v-1118h290v195h12c54-169 184-238 367-200v268c-27-8-86-15-130-15-138 0-239 95-239 234V0H128" id="bB"/><g id="y"><use transform="matrix(0.006510416666666667,0,0,0.006510416666666667,0,0)" xlink:href="#ba"/><use transform="matrix(0.006510416666666667,0,0,0.006510416666666667,8.73046875,0)" xlink:href="#bi"/><use transform="matrix(0.006510416666666667,0,0,0.006510416666666667,13.678385416666668,0)" xlink:href="#be"/><use transform="matrix(0.006510416666666667,0,0,0.006510416666666667,21.419270833333332,0)" xlink:href="#bB"/><use transform="matrix(0.006510416666666667,0,0,0.006510416666666667,27.109375,0)" xlink:href="#bi"/></g><g id="z"><use transform="matrix(0.006510416666666667,0,0,0.006510416666666667,0,0)" xlink:href="#bg"/><use transform="matrix(0.006510416666666667,0,0,0.006510416666666667,10.162760416666668,0)" xlink:href="#bh"/><use transform="matrix(0.006510416666666667,0,0,0.006510416666666667,18.33984375,0)" xlink:href="#bi"/></g><g id="A"><use transform="matrix(0.009765625,0,0,0.009765625,0,0)" xlink:href="#bq"/><use transform="matrix(0.009765625,0,0,0.009765625,11.34765625,0)" xlink:href="#aU"/><use transform="matrix(0.009765625,0,0,0.009765625,23.0078125,0)" xlink:href="#aH"/><use transform="matrix(0.009765625,0,0,0.009765625,33.564453125,0)" xlink:href="#aI"/></g><g id="B"><use transform="matrix(0.009765625,0,0,0.009765625,0,0)" xlink:href="#bv"/><use transform="matrix(0.009765625,0,0,0.009765625,14.43359375,0)" xlink:href="#aM"/><use transform="matrix(0.009765625,0,0,0.009765625,25.6640625,0)" xlink:href="#aI"/><use transform="matrix(0.009765625,0,0,0.009765625,32.3046875,0)" xlink:href="#aM"/><use transform="matrix(0.009765625,0,0,0.009765625,43.53515625,0)" xlink:href="#aH"/><use transform="matrix(0.009765625,0,0,0.009765625,54.091796875,0)" xlink:href="#aU"/><use transform="matrix(0.009765625,0,0,0.009765625,65.751953125,0)" xlink:href="#aI"/></g><g id="C"><use transform="matrix(0.009765625,0,0,0.009765625,0,0)" xlink:href="#aL"/><use transform="matrix(0.009765625,0,0,0.009765625,12.83203125,0)" xlink:href="#aI"/><use transform="matrix(0.009765625,0,0,0.009765625,19.47265625,0)" xlink:href="#aM"/><use transform="matrix(0.009765625,0,0,0.009765625,30.703125,0)" xlink:href="#aN"/><use transform="matrix(0.009765625,0,0,0.009765625,38.544921875,0)" xlink:href="#aI"/></g><path d="M158 0v-1118h175l1 205c55-151 181-225 313-225 147 0 245 90 285 228 53-141 190-228 352-228 194 0 352 125 352 384V0h-181v-749c0-161-105-225-225-225-151 0-243 103-243 244V0H807v-767c0-124-93-207-219-207-131 0-250 92-250 270V0H158" id="bC"/><g id="D"><use transform="matrix(0.009765625,0,0,0.009765625,0,0)" xlink:href="#bq"/><use transform="matrix(0.009765625,0,0,0.009765625,12.91015625,0)" xlink:href="#aP"/><use transform="matrix(0.009765625,0,0,0.009765625,17.75390625,0)" xlink:href="#bC"/><use transform="matrix(0.009765625,0,0,0.009765625,35.2734375,0)" xlink:href="#aU"/><use transform="matrix(0.009765625,0,0,0.009765625,46.93359375,0)" xlink:href="#aN"/></g><g id="E"><use transform="matrix(0.009765625,0,0,0.009765625,0,0)" xlink:href="#aQ"/><use transform="matrix(0.009765625,0,0,0.009765625,6.81640625,0)" xlink:href="#aG"/><use transform="matrix(0.009765625,0,0,0.009765625,18.80859375,0)" xlink:href="#aN"/></g><g id="F"><use transform="matrix(0.009765625,0,0,0.009765625,0,0)" xlink:href="#aL"/><use transform="matrix(0.009765625,0,0,0.009765625,12.83203125,0)" xlink:href="#aG"/><use transform="matrix(0.009765625,0,0,0.009765625,24.82421875,0)" xlink:href="#aN"/><use transform="matrix(0.009765625,0,0,0.009765625,32.666015625,0)" xlink:href="#aI"/><use transform="matrix(0.009765625,0,0,0.009765625,39.208984375,0)" xlink:href="#aP"/><use transform="matrix(0.009765625,0,0,0.009765625,44.052734375,0)" xlink:href="#aY"/><use transform="matrix(0.009765625,0,0,0.009765625,55.869140625,0)" xlink:href="#aX"/></g><path d="M180 0v-1490h901v168H370v510h643v168H370V0H180" id="bD"/><path d="M338-670V0H158v-1490h180v566c73-149 190-208 336-208 226 0 379 139 379 422V0H872v-695c0-172-96-275-252-275-161 0-282 109-282 300" id="bE"/><g id="G"><use transform="matrix(0.009765625,0,0,0.009765625,0,0)" xlink:href="#bD"/><use transform="matrix(0.009765625,0,0,0.009765625,11.806640625,0)" xlink:href="#aP"/><use transform="matrix(0.009765625,0,0,0.009765625,16.650390625,0)" xlink:href="#aY"/><use transform="matrix(0.009765625,0,0,0.009765625,28.466796875,0)" xlink:href="#aP"/><use transform="matrix(0.009765625,0,0,0.009765625,33.310546875,0)" xlink:href="#aH"/><use transform="matrix(0.009765625,0,0,0.009765625,43.8671875,0)" xlink:href="#bE"/><use transform="matrix(0.009765625,0,0,0.009765625,55.693359375,0)" xlink:href="#aU"/><use transform="matrix(0.009765625,0,0,0.009765625,67.353515625,0)" xlink:href="#aV"/></g><path fill="#333" d="M135 0v-1490h980v253H440v416h609v249H440V0H135" id="bF"/><path fill="#333" d="M428-647V0H128v-1490h294v586c65-146 175-228 341-228 232 0 385 159 385 421V0H847v-659c0-139-76-222-202-222-128 0-217 86-217 234" id="bG"/><g id="H"><use transform="matrix(0.006510416666666667,0,0,0.006510416666666667,0,0)" xlink:href="#bF"/><use transform="matrix(0.006510416666666667,0,0,0.006510416666666667,7.825520833333334,0)" xlink:href="#bb"/><use transform="matrix(0.006510416666666667,0,0,0.006510416666666667,11.438802083333334,0)" xlink:href="#bd"/><use transform="matrix(0.006510416666666667,0,0,0.006510416666666667,19.739583333333336,0)" xlink:href="#bb"/><use transform="matrix(0.006510416666666667,0,0,0.006510416666666667,23.352864583333336,0)" xlink:href="#bA"/><use transform="matrix(0.006510416666666667,0,0,0.006510416666666667,30.8203125,0)" xlink:href="#bG"/><use transform="matrix(0.006510416666666667,0,0,0.006510416666666667,39.12109375,0)" xlink:href="#bk"/><use transform="matrix(0.006510416666666667,0,0,0.006510416666666667,47.063802083333336,0)" xlink:href="#bn"/></g><g id="I"><use transform="matrix(0.009765625,0,0,0.009765625,0,0)" xlink:href="#aL"/><use transform="matrix(0.009765625,0,0,0.009765625,12.83203125,0)" xlink:href="#aG"/><use transform="matrix(0.009765625,0,0,0.009765625,24.82421875,0)" xlink:href="#aN"/><use transform="matrix(0.009765625,0,0,0.009765625,32.666015625,0)" xlink:href="#aI"/><use transform="matrix(0.009765625,0,0,0.009765625,39.208984375,0)" xlink:href="#aP"/><use transform="matrix(0.009765625,0,0,0.009765625,44.052734375,0)" xlink:href="#aY"/><use transform="matrix(0.009765625,0,0,0.009765625,55.869140625,0)" xlink:href="#aX"/></g><path d="M370-1490V0H180v-1490h190" id="bH"/><g id="J"><use transform="matrix(0.009765625,0,0,0.009765625,0,0)" xlink:href="#bH"/><use transform="matrix(0.009765625,0,0,0.009765625,5.37109375,0)" xlink:href="#aH"/></g><path d="M653-1490V0H466v-1314h-10L96-1047v-204l324-239h233" id="bI"/><path d="M646 20c-332 0-524-278-524-764 0-483 194-766 524-766s524 283 524 766c0 485-191 764-524 764zm0-166c218 0 341-220 341-598 0-380-123-601-341-601s-341 222-341 601c0 378 123 598 341 598" id="bJ"/><g id="K"><use transform="matrix(0.009765625,0,0,0.009765625,0,0)" xlink:href="#bI"/><use transform="matrix(0.009765625,0,0,0.009765625,8.134765625,0)" xlink:href="#bJ"/><use transform="matrix(0.009765625,0,0,0.009765625,21.044921875,0)" xlink:href="#aI"/><use transform="matrix(0.009765625,0,0,0.009765625,27.587890625,0)" xlink:href="#bE"/></g><g id="L"><use transform="matrix(0.009765625,0,0,0.009765625,0,0)" xlink:href="#aG"/><use transform="matrix(0.009765625,0,0,0.009765625,11.9921875,0)" xlink:href="#aQ"/></g><path d="M383-449c-3-277 82-343 222-425 88-53 156-134 156-250 0-139-108-227-243-227-118 0-235 70-246 236H82c10-251 200-395 436-395 259 0 427 165 427 393 0 161-74 273-203 352-132 80-180 132-178 316H383zm93 462c-75 0-135-60-135-134 0-75 60-135 135-135 74 0 134 60 134 135 0 74-60 134-134 134" id="bK"/><g id="M"><use transform="matrix(0.009765625,0,0,0.009765625,0,0)" xlink:href="#aY"/><use transform="matrix(0.009765625,0,0,0.009765625,11.81640625,0)" xlink:href="#bK"/></g><path d="M158 418v-1536h174v179h20c37-59 106-193 324-193 279 0 474 222 474 576 0 356-194 580-473 580-213 0-288-135-325-197h-14v591H158zm492-555c209 0 317-186 317-421 0-232-105-413-317-413-206 0-314 166-314 413 0 249 111 421 314 421" id="bL"/><g id="N"><use transform="matrix(0.009765625,0,0,0.009765625,0,0)" xlink:href="#aL"/><use transform="matrix(0.009765625,0,0,0.009765625,12.83203125,0)" xlink:href="#aI"/><use transform="matrix(0.009765625,0,0,0.009765625,19.1796875,0)" xlink:href="#aG"/><use transform="matrix(0.009765625,0,0,0.009765625,31.171875,0)" xlink:href="#bL"/></g><path d="M789 20c-398 0-667-293-667-764 0-473 273-766 655-766 315 0 558 198 612 487h-196c-61-191-204-311-415-311-262 0-471 207-471 590 0 380 208 588 482 588 249 0 420-165 425-427H828v-166h572v163c0 370-256 606-611 606" id="bM"/><g id="O"><use transform="matrix(0.009765625,0,0,0.009765625,0,0)" xlink:href="#bM"/><use transform="matrix(0.009765625,0,0,0.009765625,14.921875,0)" xlink:href="#aU"/><use transform="matrix(0.009765625,0,0,0.009765625,26.58203125,0)" xlink:href="#aY"/><use transform="matrix(0.009765625,0,0,0.009765625,38.3984375,0)" xlink:href="#aU"/><use transform="matrix(0.009765625,0,0,0.009765625,50.05859375,0)" xlink:href="#aN"/><use transform="matrix(0.009765625,0,0,0.009765625,57.587890625,0)" xlink:href="#aM"/><use transform="matrix(0.009765625,0,0,0.009765625,68.818359375,0)" xlink:href="#aI"/><use transform="matrix(0.009765625,0,0,0.009765625,75.166015625,0)" xlink:href="#aU"/></g><g id="P"><use transform="matrix(0.009765625,0,0,0.009765625,0,0)" xlink:href="#aT"/><use transform="matrix(0.009765625,0,0,0.009765625,12.7734375,0)" xlink:href="#aM"/><use transform="matrix(0.009765625,0,0,0.009765625,24.00390625,0)" xlink:href="#aY"/><use transform="matrix(0.009765625,0,0,0.009765625,35.8203125,0)" xlink:href="#aV"/><use transform="matrix(0.009765625,0,0,0.009765625,48.06640625,0)" xlink:href="#aG"/><use transform="matrix(0.009765625,0,0,0.009765625,60.05859375,0)" xlink:href="#bC"/></g><g id="Q"><use transform="matrix(0.009765625,0,0,0.009765625,0,0)" xlink:href="#aG"/><use transform="matrix(0.009765625,0,0,0.009765625,11.9921875,0)" xlink:href="#aQ"/></g><use transform="matrix(0.009765625,0,0,0.009765625,0,0)" xlink:href="#aY" id="R"/><g id="S"><use transform="matrix(0.008680555555555556,0,0,0.008680555555555556,0,0)" xlink:href="#bg"/><use transform="matrix(0.008680555555555556,0,0,0.008680555555555556,13.550347222222223,0)" xlink:href="#bh"/></g><path fill="#333" d="M601 0v-560L49-1490h357l252 464c38 68 67 130 97 208 96-243 225-446 337-672h356L905-560V0H601" id="bN"/><g id="T"><use transform="matrix(0.008680555555555556,0,0,0.008680555555555556,0,0)" xlink:href="#bN"/><use transform="matrix(0.008680555555555556,0,0,0.008680555555555556,11.050347222222223,0)" xlink:href="#bk"/><use transform="matrix(0.008680555555555556,0,0,0.008680555555555556,21.640625,0)" xlink:href="#bA"/></g><g id="U"><use transform="matrix(0.009765625,0,0,0.009765625,0,0)" xlink:href="#aL"/><use transform="matrix(0.009765625,0,0,0.009765625,12.83203125,0)" xlink:href="#aI"/><use transform="matrix(0.009765625,0,0,0.009765625,19.1796875,0)" xlink:href="#aG"/><use transform="matrix(0.009765625,0,0,0.009765625,31.171875,0)" xlink:href="#aN"/><use transform="matrix(0.009765625,0,0,0.009765625,38.369140625,0)" xlink:href="#aU"/></g><path d="M481 0L54-1118h197c107 314 236 620 325 951 87-331 217-637 324-951h197L670 0H481" id="bO"/><g id="V"><use transform="matrix(0.009765625,0,0,0.009765625,0,0)" xlink:href="#bo"/><use transform="matrix(0.009765625,0,0,0.009765625,12.44140625,0)" xlink:href="#bO"/><use transform="matrix(0.009765625,0,0,0.009765625,23.291015625,0)" xlink:href="#aU"/><use transform="matrix(0.009765625,0,0,0.009765625,34.951171875,0)" xlink:href="#aN"/><use transform="matrix(0.009765625,0,0,0.009765625,42.48046875,0)" xlink:href="#aM"/><use transform="matrix(0.009765625,0,0,0.009765625,53.7109375,0)" xlink:href="#aX"/><use transform="matrix(0.009765625,0,0,0.009765625,65.9765625,0)" xlink:href="#aU"/></g><g id="W"><use transform="matrix(0.009765625,0,0,0.009765625,0,0)" xlink:href="#aI"/><use transform="matrix(0.009765625,0,0,0.009765625,6.54296875,0)" xlink:href="#bE"/><use transform="matrix(0.009765625,0,0,0.009765625,18.369140625,0)" xlink:href="#aU"/></g><g id="X"><use transform="matrix(0.009765625,0,0,0.009765625,0,0)" xlink:href="#bI"/><use transform="matrix(0.009765625,0,0,0.009765625,8.134765625,0)" xlink:href="#bJ"/></g><g id="Y"><use transform="matrix(0.009765625,0,0,0.009765625,0,0)" xlink:href="#aI"/><use transform="matrix(0.009765625,0,0,0.009765625,6.34765625,0)" xlink:href="#aU"/><use transform="matrix(0.009765625,0,0,0.009765625,18.0078125,0)" xlink:href="#aH"/><use transform="matrix(0.009765625,0,0,0.009765625,28.564453125,0)" xlink:href="#aI"/><use transform="matrix(0.009765625,0,0,0.009765625,34.912109375,0)" xlink:href="#aH"/></g><g id="Z"><use transform="matrix(0.009765625,0,0,0.009765625,0,0)" xlink:href="#aP"/><use transform="matrix(0.009765625,0,0,0.009765625,4.84375,0)" xlink:href="#aY"/></g><path d="M295 13c-75 0-135-60-135-135s60-135 135-135 135 60 135 135S370 13 295 13" id="bP"/><path d="M613 24c-304 0-509-231-509-576 0-350 205-580 509-580 216 0 392 114 453 309l-173 49c-33-115-133-197-280-197-223 0-326 196-326 419 0 220 103 415 326 415 150 0 252-85 285-206l172 49C1010-95 832 24 613 24" id="bQ"/><g id="aa"><use transform="matrix(0.009765625,0,0,0.009765625,0,0)" xlink:href="#bP"/><use transform="matrix(0.009765625,0,0,0.009765625,5.76171875,0)" xlink:href="#bQ"/><use transform="matrix(0.009765625,0,0,0.009765625,17.1875,0)" xlink:href="#aH"/><use transform="matrix(0.009765625,0,0,0.009765625,27.744140625,0)" xlink:href="#bO"/></g><g id="ab"><use transform="matrix(0.009765625,0,0,0.009765625,0,0)" xlink:href="#bH"/><use transform="matrix(0.009765625,0,0,0.009765625,5.37109375,0)" xlink:href="#aY"/><use transform="matrix(0.009765625,0,0,0.009765625,17.1875,0)" xlink:href="#bQ"/><use transform="matrix(0.009765625,0,0,0.009765625,28.61328125,0)" xlink:href="#aN"/><use transform="matrix(0.009765625,0,0,0.009765625,35.810546875,0)" xlink:href="#aU"/><use transform="matrix(0.009765625,0,0,0.009765625,47.666015625,0)" xlink:href="#aM"/><use transform="matrix(0.009765625,0,0,0.009765625,58.896484375,0)" xlink:href="#aH"/><use transform="matrix(0.009765625,0,0,0.009765625,69.453125,0)" xlink:href="#aU"/></g><use transform="matrix(0.009765625,0,0,0.009765625,0,0)" xlink:href="#aY" id="ac"/><path d="M677 24c-213 0-288-135-325-197h-20V0H158v-1490h180v551h14c37-59 106-193 324-193 279 0 474 222 474 576 0 356-194 580-473 580zm-27-161c209 0 317-186 317-421 0-232-105-413-317-413-206 0-314 166-314 413 0 249 111 421 314 421" id="bR"/><g id="ad"><use transform="matrix(0.009765625,0,0,0.009765625,0,0)" xlink:href="#bR"/><use transform="matrix(0.009765625,0,0,0.009765625,11.85546875,0)" xlink:href="#aW"/></g><g id="ae"><use transform="matrix(0.009765625,0,0,0.009765625,0,0)" xlink:href="#bI"/><use transform="matrix(0.009765625,0,0,0.009765625,8.134765625,0)" xlink:href="#bJ"/></g><g id="af"><use transform="matrix(0.009765625,0,0,0.009765625,0,0)" xlink:href="#aM"/><use transform="matrix(0.009765625,0,0,0.009765625,11.23046875,0)" xlink:href="#aI"/></g><g id="ag"><use transform="matrix(0.009765625,0,0,0.009765625,0,0)" xlink:href="#aI"/><use transform="matrix(0.009765625,0,0,0.009765625,6.54296875,0)" xlink:href="#bE"/><use transform="matrix(0.009765625,0,0,0.009765625,18.369140625,0)" xlink:href="#aU"/></g><path d="M65 0l393-574-370-544h210c88 136 192 297 267 435 67-142 176-302 264-435h206L661-564 1053 0H844c-94-144-206-310-287-458C484-308 366-142 273 0H65" id="bS"/><g id="ah"><use transform="matrix(0.009765625,0,0,0.009765625,0,0)" xlink:href="#bC"/><use transform="matrix(0.009765625,0,0,0.009765625,17.51953125,0)" xlink:href="#aM"/><use transform="matrix(0.009765625,0,0,0.009765625,28.75,0)" xlink:href="#bS"/><use transform="matrix(0.009765625,0,0,0.009765625,39.66796875,0)" xlink:href="#aP"/><use transform="matrix(0.009765625,0,0,0.009765625,44.51171875,0)" xlink:href="#bC"/><use transform="matrix(0.009765625,0,0,0.009765625,62.03125,0)" xlink:href="#br"/><use transform="matrix(0.009765625,0,0,0.009765625,73.857421875,0)" xlink:href="#bC"/></g><g id="ai"><use transform="matrix(0.009765625,0,0,0.009765625,0,0)" xlink:href="#bO"/><use transform="matrix(0.009765625,0,0,0.009765625,11.142578125,0)" xlink:href="#aM"/><use transform="matrix(0.009765625,0,0,0.009765625,22.373046875,0)" xlink:href="#aZ"/><use transform="matrix(0.009765625,0,0,0.009765625,27.216796875,0)" xlink:href="#br"/><use transform="matrix(0.009765625,0,0,0.009765625,39.04296875,0)" xlink:href="#aU"/><use transform="matrix(0.009765625,0,0,0.009765625,50.703125,0)" xlink:href="#bK"/></g><g id="aj"><use transform="matrix(0.009765625,0,0,0.009765625,0,0)" xlink:href="#aJ"/><use transform="matrix(0.009765625,0,0,0.009765625,12.7734375,0)" xlink:href="#aN"/><use transform="matrix(0.009765625,0,0,0.009765625,19.970703125,0)" xlink:href="#aG"/><use transform="matrix(0.009765625,0,0,0.009765625,31.962890625,0)" xlink:href="#aX"/><use transform="matrix(0.009765625,0,0,0.009765625,44.228515625,0)" xlink:href="#aN"/><use transform="matrix(0.009765625,0,0,0.009765625,51.7578125,0)" xlink:href="#aM"/><use transform="matrix(0.009765625,0,0,0.009765625,62.98828125,0)" xlink:href="#bC"/></g><path d="M180 0v-1490h908v168H370v486h669v168H370v500h727V0H180" id="bT"/><g id="ak"><use transform="matrix(0.009765625,0,0,0.009765625,0,0)" xlink:href="#bT"/><use transform="matrix(0.009765625,0,0,0.009765625,12.021484375,0)" xlink:href="#bS"/><use transform="matrix(0.009765625,0,0,0.009765625,22.939453125,0)" xlink:href="#aP"/><use transform="matrix(0.009765625,0,0,0.009765625,27.783203125,0)" xlink:href="#aI"/></g><g id="al"><use transform="matrix(0.008680555555555556,0,0,0.008680555555555556,0,0)" xlink:href="#bz"/><use transform="matrix(0.008680555555555556,0,0,0.008680555555555556,10.477430555555555,0)" xlink:href="#bk"/><use transform="matrix(0.008680555555555556,0,0,0.008680555555555556,21.067708333333336,0)" xlink:href="#bA"/><use transform="matrix(0.008680555555555556,0,0,0.008680555555555556,31.024305555555557,0)" xlink:href="#bi"/></g><path fill="#333" d="M513 14c-232 0-385-159-385-421v-711h300v659c0 139 76 222 202 222 127 0 217-86 217-234v-647h301V0H864l-4-232C797-74 683 14 513 14" id="bU"/><g id="am"><use transform="matrix(0.008680555555555556,0,0,0.008680555555555556,0,0)" xlink:href="#bt"/><use transform="matrix(0.008680555555555556,0,0,0.008680555555555556,13.151041666666668,0)" xlink:href="#bh"/><use transform="matrix(0.008680555555555556,0,0,0.008680555555555556,24.053819444444446,0)" xlink:href="#bU"/><use transform="matrix(0.008680555555555556,0,0,0.008680555555555556,35.12152777777778,0)" xlink:href="#bd"/><use transform="matrix(0.008680555555555556,0,0,0.008680555555555556,46.189236111111114,0)" xlink:href="#bi"/></g><g id="an"><use transform="matrix(0.008680555555555556,0,0,0.008680555555555556,0,0)" xlink:href="#bg"/><use transform="matrix(0.008680555555555556,0,0,0.008680555555555556,13.550347222222223,0)" xlink:href="#bh"/><use transform="matrix(0.008680555555555556,0,0,0.008680555555555556,24.453125,0)" xlink:href="#bi"/></g><g id="ao"><use transform="matrix(0.008680555555555556,0,0,0.008680555555555556,0,0)" xlink:href="#bj"/><use transform="matrix(0.008680555555555556,0,0,0.008680555555555556,11.458333333333334,0)" xlink:href="#bk"/><use transform="matrix(0.008680555555555556,0,0,0.008680555555555556,22.048611111111114,0)" xlink:href="#bl"/><use transform="matrix(0.008680555555555556,0,0,0.008680555555555556,32.50868055555556,0)" xlink:href="#bk"/><use transform="matrix(0.008680555555555556,0,0,0.008680555555555556,43.098958333333336,0)" xlink:href="#bb"/><use transform="matrix(0.008680555555555556,0,0,0.008680555555555556,47.91666666666667,0)" xlink:href="#bm"/><use transform="matrix(0.008680555555555556,0,0,0.008680555555555556,58.255208333333336,0)" xlink:href="#bk"/><use transform="matrix(0.008680555555555556,0,0,0.008680555555555556,68.84548611111111,0)" xlink:href="#bn"/></g><g id="ap"><use transform="matrix(0.009765625,0,0,0.009765625,0,0)" xlink:href="#aL"/><use transform="matrix(0.009765625,0,0,0.009765625,12.83203125,0)" xlink:href="#aP"/><use transform="matrix(0.009765625,0,0,0.009765625,17.67578125,0)" xlink:href="#bw"/><use transform="matrix(0.009765625,0,0,0.009765625,28.427734375,0)" xlink:href="#aU"/></g><path fill="#333" d="M659 0H135v-1490h529c448 0 721 280 721 744 0 466-273 746-726 746zM440-263h204c287 0 437-148 437-483 0-333-150-481-435-481H440v964" id="bV"/><g id="aq"><use transform="matrix(0.008680555555555556,0,0,0.008680555555555556,0,0)" xlink:href="#bV"/><use transform="matrix(0.008680555555555556,0,0,0.008680555555555556,12.838541666666668,0)" xlink:href="#be"/><use transform="matrix(0.008680555555555556,0,0,0.008680555555555556,23.159722222222225,0)" xlink:href="#bi"/><use transform="matrix(0.008680555555555556,0,0,0.008680555555555556,29.756944444444446,0)" xlink:href="#be"/><use transform="matrix(0.008680555555555556,0,0,0.008680555555555556,40.078125,0)" xlink:href="#bA"/><use transform="matrix(0.008680555555555556,0,0,0.008680555555555556,50.03472222222222,0)" xlink:href="#bk"/><use transform="matrix(0.008680555555555556,0,0,0.008680555555555556,60.625,0)" xlink:href="#bi"/></g><path fill="#333" d="M120 0v-182l551-686v-8H137v-242h897v199L514-250v8h539V0H120" id="bW"/><g id="ar"><use transform="matrix(0.008680555555555556,0,0,0.008680555555555556,0,0)" xlink:href="#ba"/><use transform="matrix(0.008680555555555556,0,0,0.008680555555555556,11.640625,0)" xlink:href="#bb"/><use transform="matrix(0.008680555555555556,0,0,0.008680555555555556,16.458333333333336,0)" xlink:href="#bW"/><use transform="matrix(0.008680555555555556,0,0,0.008680555555555556,26.284722222222225,0)" xlink:href="#bk"/></g><g id="as"><use transform="matrix(0.009765625,0,0,0.009765625,0,0)" xlink:href="#bD"/><use transform="matrix(0.009765625,0,0,0.009765625,11.1328125,0)" xlink:href="#br"/><use transform="matrix(0.009765625,0,0,0.009765625,22.958984375,0)" xlink:href="#aZ"/><use transform="matrix(0.009765625,0,0,0.009765625,27.802734375,0)" xlink:href="#aZ"/></g><path fill="#333" d="M750-1118v229H516V0H217v-889H20v-229h197v-86c0-238 156-356 363-356 94 0 178 20 215 31l-54 226c-25-7-61-15-100-15-123-3-131 84-125 200h234" id="bX"/><g id="at"><use transform="matrix(0.008680555555555556,0,0,0.008680555555555556,0,0)" xlink:href="#bh"/><use transform="matrix(0.008680555555555556,0,0,0.008680555555555556,10.902777777777779,0)" xlink:href="#bX"/></g><g id="au"><use transform="matrix(0.008680555555555556,0,0,0.008680555555555556,0,0)" xlink:href="#ba"/><use transform="matrix(0.008680555555555556,0,0,0.008680555555555556,11.640625,0)" xlink:href="#bb"/><use transform="matrix(0.008680555555555556,0,0,0.008680555555555556,16.458333333333336,0)" xlink:href="#bW"/><use transform="matrix(0.008680555555555556,0,0,0.008680555555555556,26.284722222222225,0)" xlink:href="#bk"/></g><use transform="matrix(0.008680555555555556,0,0,0.008680555555555556,0,0)" xlink:href="#bd" id="av"/><g id="aw"><use transform="matrix(0.009765625,0,0,0.009765625,0,0)" xlink:href="#bD"/><use transform="matrix(0.009765625,0,0,0.009765625,11.806640625,0)" xlink:href="#aP"/><use transform="matrix(0.009765625,0,0,0.009765625,16.650390625,0)" xlink:href="#aY"/><use transform="matrix(0.009765625,0,0,0.009765625,28.466796875,0)" xlink:href="#aP"/><use transform="matrix(0.009765625,0,0,0.009765625,33.310546875,0)" xlink:href="#aH"/><use transform="matrix(0.009765625,0,0,0.009765625,43.8671875,0)" xlink:href="#bE"/><use transform="matrix(0.009765625,0,0,0.009765625,55.693359375,0)" xlink:href="#aU"/><use transform="matrix(0.009765625,0,0,0.009765625,67.353515625,0)" xlink:href="#aV"/></g><g id="ax"><use transform="matrix(0.009765625,0,0,0.009765625,0,0)" xlink:href="#aL"/><use transform="matrix(0.009765625,0,0,0.009765625,12.83203125,0)" xlink:href="#aG"/><use transform="matrix(0.009765625,0,0,0.009765625,24.82421875,0)" xlink:href="#aN"/><use transform="matrix(0.009765625,0,0,0.009765625,32.666015625,0)" xlink:href="#aI"/></g><g id="ay"><use transform="matrix(0.009765625,0,0,0.009765625,0,0)" xlink:href="#bD"/><use transform="matrix(0.009765625,0,0,0.009765625,11.806640625,0)" xlink:href="#aP"/><use transform="matrix(0.009765625,0,0,0.009765625,16.650390625,0)" xlink:href="#aY"/><use transform="matrix(0.009765625,0,0,0.009765625,28.466796875,0)" xlink:href="#aM"/><use transform="matrix(0.009765625,0,0,0.009765625,39.697265625,0)" xlink:href="#aZ"/></g><g id="az"><use transform="matrix(0.009765625,0,0,0.009765625,0,0)" xlink:href="#bq"/><use transform="matrix(0.009765625,0,0,0.009765625,11.34765625,0)" xlink:href="#aU"/><use transform="matrix(0.009765625,0,0,0.009765625,23.0078125,0)" xlink:href="#aH"/><use transform="matrix(0.009765625,0,0,0.009765625,33.564453125,0)" xlink:href="#aI"/><use transform="matrix(0.009765625,0,0,0.009765625,40.107421875,0)" xlink:href="#bK"/></g><g id="aA"><use transform="matrix(0.009765625,0,0,0.009765625,0,0)" xlink:href="#bH"/><use transform="matrix(0.009765625,0,0,0.009765625,5.37109375,0)" xlink:href="#aY"/><use transform="matrix(0.009765625,0,0,0.009765625,17.1875,0)" xlink:href="#bQ"/><use transform="matrix(0.009765625,0,0,0.009765625,28.61328125,0)" xlink:href="#aN"/><use transform="matrix(0.009765625,0,0,0.009765625,35.810546875,0)" xlink:href="#aU"/><use transform="matrix(0.009765625,0,0,0.009765625,47.470703125,0)" xlink:href="#bC"/><use transform="matrix(0.009765625,0,0,0.009765625,64.990234375,0)" xlink:href="#aU"/><use transform="matrix(0.009765625,0,0,0.009765625,76.650390625,0)" xlink:href="#aY"/><use transform="matrix(0.009765625,0,0,0.009765625,88.466796875,0)" xlink:href="#aI"/></g><path d="M180 0v-1490h190v1322h690V0H180" id="bY"/><g id="aB"><use transform="matrix(0.009765625,0,0,0.009765625,0,0)" xlink:href="#bY"/><use transform="matrix(0.009765625,0,0,0.009765625,11.30859375,0)" xlink:href="#aG"/><use transform="matrix(0.009765625,0,0,0.009765625,23.30078125,0)" xlink:href="#aG"/><use transform="matrix(0.009765625,0,0,0.009765625,35.29296875,0)" xlink:href="#bL"/></g><g id="aC"><use transform="matrix(0.009765625,0,0,0.009765625,0,0)" xlink:href="#aK"/><use transform="matrix(0.009765625,0,0,0.009765625,14.609375,0)" xlink:href="#aG"/><use transform="matrix(0.009765625,0,0,0.009765625,26.6015625,0)" xlink:href="#br"/><use transform="matrix(0.009765625,0,0,0.009765625,38.427734375,0)" xlink:href="#aY"/><use transform="matrix(0.009765625,0,0,0.009765625,50.244140625,0)" xlink:href="#aI"/><use transform="matrix(0.009765625,0,0,0.009765625,56.591796875,0)" xlink:href="#aU"/><use transform="matrix(0.009765625,0,0,0.009765625,68.251953125,0)" xlink:href="#aN"/></g><path d="M677 24c-359 0-556-231-505-538l162-976h190L363-516c-36 218 86 364 321 364 246 0 428-159 464-377l159-961h190l-163 989c-51 309-312 525-657 525" id="bZ"/><path d="M-41 0l788-1490h220L1268 0h-192l-80-416H383L169 0H-41zm509-582h497c-56-293-77-375-126-756-162 359-224 468-371 756" id="ca"/><path d="M87 0l247-1490h510c351 0 476 196 432 460-33 197-146 351-346 417L1163 0H943L728-579c-116 2-237 0-355 1L277 0H87zm314-747h311c238 0 346-110 375-283 31-185-52-293-281-293H496" id="cb"/><path d="M226-1323l28-167h1126l-28 167H885L666 0H476l219-1323H226" id="cc"/><g id="aD"><use transform="matrix(0.010850694444444444,0,0,0.010850694444444444,0,0)" xlink:href="#bZ"/><use transform="matrix(0.010850694444444444,0,0,0.010850694444444444,16.09157986111111,0)" xlink:href="#ca"/><use transform="matrix(0.010850694444444444,0,0,0.010850694444444444,31.42361111111111,0)" xlink:href="#cb"/><use transform="matrix(0.010850694444444444,0,0,0.010850694444444444,45.724826388888886,0)" xlink:href="#cc"/></g><path d="M524-1490L277 0H87l247-1490h190" id="cd"/><path d="M356-664L245 0H65l186-1118h173l-32 197c96-152 219-211 366-211 232 0 366 145 319 428L960 0H779l117-701c29-174-48-269-198-269-165 0-310 115-342 306" id="ce"/><path d="M691-1118l-25 154H437L325-290c-17 103 16 144 108 144 23 0 63-6 94-12L538-6c-36 12-87 20-136 20-196 0-290-109-260-290l114-688H88l25-154h169l44-266h180l-44 266h229" id="cf"/><path d="M535 24C259 24 94-144 94-427c0-392 272-715 610-715 216 0 356 119 356 305 0 244-237 344-790 350-18 199 49 349 276 352 142 0 260-66 317-173l167 47C947-85 756 24 535 24zM294-623c447-4 586-57 586-218 0-85-78-141-194-141-220 0-342 177-392 359" id="cg"/><path d="M66 0l185-1118h174l-28 172h12c78-136 219-209 411-185l-30 181c-211-47-398 67-428 250L246 0H66" id="ch"/><path d="M780-1118l-24 146H497L317 116C281 334 148 448-56 448c-43 0-82-5-117-17l45-161c143 34 239 0 264-153L316-972H89l24-146h227l13-77c43-287 254-417 541-345l-50 154c-23-5-81-8-121-8-107 0-167 63-189 196l-13 80h259" id="ci"/><path d="M481 24C202 24 45-202 104-557s293-575 571-575c216 0 263 132 291 193h15l29-179h181L1006 0H831l28-173h-21C788-107 693 24 481 24zm56-161c204 0 342-174 383-422s-41-412-245-412c-215 0-350 183-388 412-39 235 39 422 250 422" id="cj"/><path d="M528 24C258 24 94-156 94-433c0-354 228-699 603-699 222 0 381 120 410 314l-176 39c-14-114-95-192-238-192-272 0-419 288-419 536 0 167 76 298 258 298 155 0 277-90 329-211l166 58C935-93 745 24 528 24" id="ck"/><g id="aE"><use transform="matrix(0.010850694444444444,0,0,0.010850694444444444,0,0)" xlink:href="#cd"/><use transform="matrix(0.010850694444444444,0,0,0.010850694444444444,5.967881944444445,0)" xlink:href="#ce"/><use transform="matrix(0.010850694444444444,0,0,0.010850694444444444,19.108072916666664,0)" xlink:href="#cf"/><use transform="matrix(0.010850694444444444,0,0,0.010850694444444444,26.182725694444443,0)" xlink:href="#cg"/><use transform="matrix(0.010850694444444444,0,0,0.010850694444444444,38.97569444444444,0)" xlink:href="#ch"/><use transform="matrix(0.010850694444444444,0,0,0.010850694444444444,47.69965277777778,0)" xlink:href="#ci"/><use transform="matrix(0.010850694444444444,0,0,0.010850694444444444,55.338541666666664,0)" xlink:href="#cj"/><use transform="matrix(0.010850694444444444,0,0,0.010850694444444444,68.97786458333333,0)" xlink:href="#ck"/><use transform="matrix(0.010850694444444444,0,0,0.010850694444444444,81.68402777777777,0)" xlink:href="#cg"/></g></defs></g></svg>